<?xml version="1.0" standalone="no"?>
<!DOCTYPE svg PUBLIC "-//W3C//DTD SVG 20010904//EN"
 "http://www.w3.org/TR/2001/REC-SVG-20010904/DTD/svg10.dtd">
<svg version="1.0" xmlns="http://www.w3.org/2000/svg"
 width="800.000000pt" height="800.000000pt" viewBox="0 0 800.000000 800.000000"
 preserveAspectRatio="xMidYMid meet">
<metadata>
Created by potrace 1.14, written by Peter Selinger 2001-2017
</metadata>
<g transform="translate(0.000000,800.000000) scale(0.100000,-0.100000)"
fill="#000000" stroke="none">
<path d="M4093 7433 c9 -2 23 -2 30 0 6 3 -1 5 -18 5 -16 0 -22 -2 -12 -5z"/>
<path d="M4167 7414 c3 -8 14 -14 25 -14 23 0 16 16 -11 23 -14 3 -18 1 -14
-9z"/>
<path d="M4023 7393 c-18 -2 -33 -8 -33 -13 0 -5 -10 -10 -22 -12 -13 -2 -22
-8 -21 -15 1 -6 -17 -14 -40 -19 -42 -8 -42 -8 28 -14 57 -5 61 -7 24 -8 -96
-4 -416 -103 -427 -133 -2 -5 -10 -9 -19 -9 -8 0 -27 -8 -41 -18 -15 -10 -34
-23 -42 -27 -13 -8 -13 -6 -2 8 21 25 125 92 140 89 6 -2 12 2 12 8 0 5 6 10
13 10 7 0 22 7 33 15 20 15 23 16 -70 -12 -13 -4 -17 -2 -12 5 4 7 3 12 -3 12
-5 0 -12 -4 -15 -9 -3 -5 -17 -11 -31 -13 -13 -3 -22 -1 -19 4 3 5 -5 7 -18 4
-12 -3 -49 -8 -80 -11 -32 -4 -61 -12 -65 -19 -5 -7 -37 -23 -72 -34 -65 -22
-90 -23 -52 -2 26 14 27 26 2 26 -11 0 -17 -4 -15 -8 3 -4 -4 -8 -15 -8 -11 0
-22 3 -24 8 -9 13 -61 6 -112 -16 -67 -29 -183 -90 -219 -115 -41 -29 -161
-146 -191 -186 -14 -19 -25 -31 -25 -26 0 5 -14 -5 -30 -23 -44 -48 -100 -123
-100 -134 0 -5 -14 -26 -31 -47 -17 -21 -31 -45 -32 -52 -2 -8 -7 -20 -11 -28
-6 -10 -5 -12 2 -7 7 4 12 1 12 -8 0 -9 -6 -16 -12 -16 -7 0 -30 -34 -51 -76
-20 -41 -33 -72 -27 -69 5 3 10 4 10 0 0 -7 -23 -49 -31 -55 -11 -9 -49 -75
-49 -85 0 -5 9 1 20 15 18 23 26 18 21 -12 0 -5 3 -8 9 -8 5 0 10 8 10 19 0
10 7 24 15 31 18 15 20 -1 3 -18 -6 -6 -9 -14 -6 -17 3 -3 13 1 22 10 9 9 16
13 16 8 0 -4 -18 -24 -40 -43 -22 -19 -40 -39 -40 -45 0 -5 5 -3 10 5 6 9 10
10 10 3 0 -6 -5 -15 -10 -18 -6 -4 -17 -22 -25 -41 -8 -19 -22 -37 -32 -41
-24 -9 -33 -23 -33 -55 0 -16 -5 -28 -11 -28 -7 0 -9 -12 -7 -30 3 -17 2 -33
-1 -35 -10 -5 0 -215 14 -310 5 -32 15 -56 29 -67 11 -10 16 -18 10 -18 -15 0
-15 -41 -2 -97 7 -29 7 -52 0 -72 -8 -24 -7 -37 5 -62 10 -21 14 -49 11 -90
-3 -44 -1 -59 9 -59 7 0 10 -6 8 -12 -5 -15 22 -54 31 -45 12 12 44 -67 43
-108 0 -33 -2 -36 -9 -18 -6 15 -15 20 -29 16 -12 -3 -41 4 -66 16 -55 26 -56
26 -84 0 -20 -19 -21 -27 -17 -111 3 -50 8 -93 11 -96 3 -3 13 4 21 17 12 16
19 19 29 11 9 -8 17 2 32 42 23 60 46 80 65 57 19 -22 88 -71 88 -62 0 4 9 -6
20 -24 10 -18 28 -41 40 -53 20 -20 20 -20 20 0 0 11 -10 30 -21 41 -16 16
-18 23 -9 29 7 4 9 13 5 20 -5 8 -3 11 6 8 7 -2 25 -32 39 -66 14 -34 28 -62
31 -62 7 0 20 146 25 260 1 36 5 76 9 90 14 55 25 170 25 255 -1 128 5 248 13
262 4 6 3 23 -3 37 -6 16 -6 26 0 26 5 0 6 7 3 17 -4 10 -2 14 4 10 6 -4 13
-1 16 6 3 8 -3 18 -13 25 -13 8 -17 21 -14 53 2 23 9 48 15 55 8 10 7 17 -5
29 -12 12 -13 21 -4 40 8 17 8 32 0 52 -11 30 -10 95 4 127 5 14 4 17 -5 12
-15 -10 -6 51 16 104 19 45 22 64 12 71 -5 3 7 21 28 40 20 19 33 28 29 22
-10 -17 0 -16 29 3 18 12 28 13 44 4 12 -6 21 -15 21 -20 0 -4 33 -6 73 -3 68
4 129 28 149 57 6 8 93 26 145 29 12 0 20 3 18 6 -12 12 18 29 38 22 15 -6 26
-4 35 6 8 8 22 11 34 7 15 -4 18 -3 13 6 -6 9 0 11 23 8 24 -3 29 -2 21 8 -8
9 -5 11 10 7 12 -3 29 1 39 8 14 11 13 9 -2 -9 l-19 -22 31 16 c18 8 36 13 41
10 5 -4 12 -2 16 4 9 15 27 12 20 -2 -4 -7 1 -4 9 6 9 11 16 14 16 8 0 -9 10
-8 36 3 20 8 55 15 77 15 41 0 107 18 117 32 4 4 20 11 38 14 24 5 33 3 38
-10 3 -9 14 -16 23 -16 14 1 13 3 -3 15 -17 13 -17 15 -3 21 9 3 21 3 28 -1 8
-5 9 -1 4 14 -6 20 -3 22 27 19 18 -1 45 6 61 16 24 16 27 16 21 2 -7 -19 7
-21 24 -4 8 8 12 9 12 1 0 -6 9 -9 20 -6 11 3 20 12 20 19 0 9 11 14 28 14 19
0 23 -3 13 -9 -10 -6 -10 -10 -1 -16 6 -4 19 0 28 8 9 8 29 14 44 13 19 -1 31
5 39 21 6 12 19 25 28 28 13 5 14 4 4 -6 -22 -23 -14 -33 10 -13 12 11 30 26
40 33 15 12 17 12 11 -3 -3 -9 -11 -17 -18 -17 -6 -1 3 -4 19 -8 25 -6 35 -2
58 21 15 16 25 33 22 39 -4 5 -2 16 5 24 7 9 8 15 0 20 -5 3 -10 11 -10 18 0
6 6 2 14 -8 8 -11 12 -26 9 -35 -3 -9 3 -6 15 8 11 12 24 22 29 22 4 0 14 9
20 19 10 16 21 18 68 15 58 -4 109 -27 83 -37 -8 -3 -5 -6 7 -6 11 -1 28 -10
38 -21 9 -11 23 -20 30 -20 7 0 20 -9 30 -20 9 -11 24 -20 32 -20 8 0 15 -8
15 -17 0 -10 24 -40 53 -68 28 -27 45 -41 37 -30 -14 18 -14 19 2 7 10 -8 17
-17 16 -20 -2 -20 7 -34 52 -83 27 -29 55 -66 61 -82 8 -18 17 -26 26 -23 8 3
12 2 9 -3 -3 -5 1 -14 9 -21 8 -7 15 -20 15 -30 0 -10 7 -23 15 -30 8 -7 15
-21 15 -31 0 -10 4 -20 9 -23 4 -3 6 -17 4 -30 -3 -15 1 -32 11 -42 12 -11 14
-20 7 -28 -7 -9 -7 -16 2 -25 6 -6 13 -34 13 -62 1 -27 8 -57 15 -65 9 -11 9
-18 1 -26 -16 -16 -15 -43 2 -57 11 -9 15 -9 19 1 3 7 6 -1 6 -19 1 -47 -8
-66 -26 -52 -12 10 -13 8 -7 -17 3 -16 6 -40 6 -54 0 -14 4 -33 9 -43 6 -9 6
-17 2 -16 -20 3 -23 -2 -12 -22 8 -15 8 -19 0 -15 -6 4 -11 0 -11 -8 0 -9 5
-15 11 -14 13 3 21 -49 9 -57 -9 -5 -2 -43 11 -60 7 -10 14 -80 24 -233 3 -40
9 -81 15 -92 5 -10 10 -36 10 -57 0 -21 18 -111 40 -201 22 -89 40 -171 40
-182 0 -25 15 -33 30 -15 13 16 10 66 -5 78 -6 5 -4 12 6 20 9 6 19 19 22 27
4 8 5 -6 2 -32 -3 -28 -1 -48 5 -48 6 0 10 37 11 88 0 58 3 80 9 67 6 -14 9
-15 10 -5 0 10 6 7 20 -10 l19 -25 -5 32 c-6 41 12 53 21 13 4 -17 11 -27 17
-24 5 3 7 15 5 26 -6 22 20 58 41 58 11 0 12 10 7 41 -5 31 -4 40 5 34 9 -5
10 5 5 39 -4 27 -3 46 2 46 6 0 6 21 2 53 -12 82 -11 265 2 269 16 5 14 181
-3 208 -10 18 -10 24 -1 27 16 6 8 131 -12 184 -8 20 -12 39 -9 42 3 3 1 14
-4 24 -6 11 -13 38 -15 61 -4 46 -17 70 -17 33 0 -13 -4 -19 -10 -16 -6 4 -8
23 -5 45 3 22 1 41 -5 45 -5 3 -10 17 -10 30 0 13 -4 26 -10 30 -5 3 -8 19 -7
34 1 16 6 27 10 24 5 -3 6 -12 3 -20 -4 -9 -2 -21 4 -28 5 -7 16 -30 24 -51
l15 -39 -4 40 c-2 22 -7 63 -10 90 -4 28 -2 93 4 145 20 176 21 191 9 128 -6
-32 -14 -58 -17 -58 -4 0 -13 20 -20 44 -31 106 -183 267 -334 354 -21 12 -47
22 -57 22 -10 0 -20 6 -23 14 -8 20 -287 117 -334 116 -7 0 -13 5 -13 11 0 5
5 7 11 3 7 -4 9 -2 5 7 -3 8 -9 22 -12 32 -4 9 -10 17 -16 17 -5 0 -18 8 -29
19 -19 17 -19 19 -2 27 17 7 27 10 47 13 5 0 -2 10 -16 20 -25 20 -71 32 -141
36 -23 1 -51 6 -62 10 -20 8 -20 8 -1 -13 l18 -21 -33 11 c-63 21 -80 31 -67
40 9 5 5 8 -12 8 -14 0 -47 9 -75 20 -56 23 -30 21 60 -5 63 -18 176 -28 153
-14 -7 5 -25 9 -39 9 -27 0 -106 55 -101 71 1 5 -2 9 -8 9 -5 0 -10 -5 -10
-12 0 -6 -10 -2 -23 10 -27 26 -37 28 -37 7 0 -13 -4 -14 -20 -5 -10 6 -32 12
-47 14 -15 2 -44 6 -63 8 -19 3 -50 3 -67 1z m117 -84 c8 -4 -12 -5 -45 -2
-33 3 -67 10 -75 14 -19 11 99 -1 120 -12z m136 -45 c18 -14 18 -14 -6 -3 -31
14 -36 19 -24 19 6 0 19 -7 30 -16z m235 -136 c17 -21 25 -36 17 -33 -7 3 -23
21 -36 40 -12 19 -27 35 -32 35 -6 0 -10 5 -10 11 0 16 23 -4 61 -53z m-1356
22 c-3 -5 -14 -10 -23 -10 -15 0 -15 2 -2 10 20 13 33 13 25 0z m158 -3 c-3
-5 -14 -6 -26 -3 -11 3 -29 0 -39 -5 -11 -6 -27 -8 -36 -6 -14 3 -12 6 8 15
28 12 101 11 93 -1z m1246 -11 c11 -14 6 -15 -27 -7 -4 1 8 21 12 21 2 0 9 -6
15 -14z m-1504 -36 c-62 -31 -85 -37 -85 -21 0 9 30 25 42 23 4 -1 19 5 35 13
15 8 37 15 48 15 11 0 -7 -13 -40 -30z m-100 -40 c-3 -5 -12 -10 -18 -10 -7 0
-6 4 3 10 19 12 23 12 15 0z m330 -35 c-165 -76 -303 -137 -315 -138 -8 -1
-24 -10 -35 -20 -17 -16 -138 -77 -153 -77 -2 0 1 7 8 15 20 24 159 97 170 90
6 -4 23 1 38 11 15 10 29 19 32 19 3 0 37 16 75 35 70 34 181 78 200 78 6 1
-3 -6 -20 -13z m-305 -55 c0 -5 -10 -10 -22 -9 -22 0 -22 1 -3 9 11 5 21 9 23
9 1 1 2 -3 2 -9z m-78 -36 c-15 -12 -28 -18 -30 -13 -2 5 -8 9 -13 9 -6 0 -7
-4 -4 -10 4 -6 -1 -7 -11 -3 -13 5 -11 9 15 22 17 9 40 17 51 17 18 0 17 -3
-8 -22z m437 22 c-2 -2 -15 -9 -29 -15 -24 -11 -24 -11 -6 3 16 13 49 24 35
12z m-119 -20 c0 -2 -8 -10 -17 -17 -16 -13 -17 -12 -4 4 13 16 21 21 21 13z
m1813 -41 c99 -56 256 -226 298 -323 24 -56 24 -78 0 -32 -32 59 -91 143 -112
158 -11 8 -24 24 -29 37 -5 13 -23 30 -40 38 -16 9 -28 11 -25 6 15 -23 -20
-6 -43 22 -51 61 -63 70 -81 64 -12 -3 -21 3 -29 22 -11 27 -11 27 -7 3 4 -24
3 -24 -10 -6 -12 16 -12 22 -2 28 19 12 31 10 80 -17z m2 -55 c3 -6 -1 -7 -9
-4 -18 7 -21 14 -7 14 6 0 13 -4 16 -10z m-728 -45 c0 -8 -4 -15 -9 -15 -10 0
-11 14 -1 23 9 10 10 9 10 -8z m-1677 -35 c-8 -5 -19 -10 -25 -10 -5 0 -3 5 5
10 8 5 20 10 25 10 6 0 3 -5 -5 -10z m1656 -6 c-3 -9 -6 -18 -6 -20 0 -3 -4
-3 -10 1 -11 7 -2 35 12 35 6 0 7 -7 4 -16z m516 -43 c5 -4 -8 -5 -27 -3 -19
2 -38 8 -41 13 -6 10 57 0 68 -10z m398 -61 c6 -11 9 -20 8 -20 -2 0 -11 9
-21 20 -9 11 -13 20 -7 20 5 0 14 -9 20 -20z m60 -84 c0 -5 -7 -1 -15 10 -8
10 -14 24 -14 29 0 6 6 1 14 -9 8 -11 15 -24 15 -30z m70 -187 c0 -10 3 -26 6
-36 5 -12 4 -15 -4 -8 -6 6 -13 24 -15 42 -3 17 -8 38 -12 45 -3 7 1 4 9 -6 9
-11 16 -28 16 -37z m-3140 -504 c0 -8 -4 -15 -10 -15 -5 0 -7 7 -4 15 4 8 8
15 10 15 2 0 4 -7 4 -15z"/>
<path d="M3746 7371 c-3 -5 -22 -12 -41 -15 -20 -4 -33 -11 -30 -16 3 -6 15
-6 29 0 13 5 26 7 27 6 2 -2 13 5 23 15 11 11 14 19 8 19 -6 0 -13 -4 -16 -9z"/>
<path d="M3436 7341 c-8 -12 18 -21 33 -11 10 5 8 9 -4 14 -21 8 -23 8 -29 -3z"/>
<path d="M3572 7332 c-20 -6 -13 -19 13 -24 14 -3 30 0 35 7 8 9 4 14 -13 17
-12 2 -28 3 -35 0z"/>
<path d="M3390 7319 c0 -6 -6 -9 -14 -6 -8 3 -20 0 -26 -8 -15 -18 14 -24 57
-11 26 7 30 12 22 23 -14 16 -39 17 -39 2z"/>
<path d="M3658 7303 c7 -3 16 -2 19 1 4 3 -2 6 -13 5 -11 0 -14 -3 -6 -6z"/>
<path d="M4640 7154 c0 -8 5 -12 10 -9 6 4 8 11 5 16 -9 14 -15 11 -15 -7z"/>
<path d="M5290 6855 c7 -8 17 -15 22 -15 6 0 5 7 -2 15 -7 8 -17 15 -22 15 -6
0 -5 -7 2 -15z"/>
<path d="M5085 5890 c3 -5 8 -10 11 -10 2 0 4 5 4 10 0 6 -5 10 -11 10 -5 0
-7 -4 -4 -10z"/>
<path d="M5460 5750 c0 -5 5 -10 11 -10 5 0 7 5 4 10 -3 6 -8 10 -11 10 -2 0
-4 -4 -4 -10z"/>
<path d="M3270 5451 c-8 -5 -36 -8 -62 -5 -26 3 -48 2 -48 -3 0 -5 -8 -9 -17
-10 -10 -1 -29 -4 -43 -8 -15 -4 -20 -3 -13 2 7 5 -3 9 -27 9 -22 1 -37 -2
-34 -7 6 -10 -16 -13 -60 -10 -18 2 -35 -5 -47 -18 -11 -12 -24 -21 -29 -21
-6 0 -10 -7 -10 -15 0 -9 -11 -20 -24 -26 -13 -6 -27 -21 -30 -32 -4 -15 -2
-17 7 -8 6 6 20 11 31 11 18 -1 17 -3 -6 -16 -16 -8 -28 -22 -28 -30 0 -10 -6
-14 -15 -10 -8 3 -15 1 -15 -4 0 -6 7 -10 15 -10 8 0 15 -5 15 -11 0 -5 -4 -7
-10 -4 -5 3 -22 -2 -37 -12 -15 -10 -24 -12 -20 -6 6 9 3 11 -7 7 -16 -6 -23
-53 -8 -55 46 -8 59 -4 88 27 17 19 33 31 36 28 4 -3 9 21 13 53 10 95 12 101
14 41 0 -32 4 -57 9 -57 18 3 40 -2 55 -13 15 -11 12 -13 -22 -13 -21 0 -37 3
-34 8 2 4 -1 7 -6 7 -18 0 -12 -25 10 -38 19 -12 17 -15 -42 -72 -59 -57 -66
-60 -113 -61 -49 -1 -50 -1 -18 -10 17 -5 32 -14 32 -19 0 -13 103 -13 115 -1
22 21 155 13 155 -9 0 -5 17 -12 38 -15 20 -4 44 -9 53 -11 9 -3 19 3 23 11 5
13 1 15 -17 9 -12 -3 -19 -3 -15 1 4 5 3 14 -3 21 -8 10 -4 13 18 11 18 -1 27
3 26 11 -3 14 23 17 31 3 4 -5 0 -11 -6 -14 -16 -6 2 -8 109 -10 82 -2 111
-10 73 -20 -13 -3 -18 -1 -13 6 5 9 3 9 -8 1 -23 -18 -100 -27 -93 -11 3 9 -6
12 -38 9 -44 -4 -58 -15 -58 -42 1 -11 4 -10 15 4 12 16 15 17 15 4 0 -11 11
-17 35 -20 19 -2 35 0 35 4 0 5 9 4 20 -2 11 -6 20 -7 20 -3 0 4 38 9 85 10
47 0 85 -3 85 -8 0 -5 -5 -9 -11 -9 -5 0 -7 -4 -4 -10 6 -10 63 24 78 48 13
19 29 14 22 -8 -4 -11 -2 -20 4 -20 15 0 14 33 -1 48 -6 6 -8 15 -4 19 4 5 15
-1 23 -12 13 -16 15 -17 10 -2 -4 9 -2 17 4 17 6 0 7 6 4 13 -4 6 5 0 19 -16
l25 -27 28 35 c15 19 33 35 39 35 11 0 11 32 1 96 -4 24 0 34 19 49 13 10 24
26 24 37 0 11 4 17 9 13 5 -3 12 -1 16 5 3 5 -2 10 -12 10 -12 1 -8 5 12 15
17 7 25 14 18 14 -17 1 -4 31 13 31 20 0 17 14 -8 36 -13 12 -18 13 -13 4 7
-12 5 -12 -11 1 -10 9 -26 20 -34 24 -13 8 -13 7 0 -10 14 -17 13 -18 -30 -12
-25 4 -58 9 -74 12 -16 3 -34 7 -40 8 -6 1 -14 6 -17 10 -3 5 -25 3 -48 -3
-35 -9 -44 -8 -57 5 -11 11 -20 13 -28 5 -7 -5 -15 -8 -18 -5 -2 3 -18 7 -34
9 -16 2 -47 7 -69 10 -22 4 -47 2 -55 -3z m-315 -51 c3 -5 -1 -10 -10 -10 -9
0 -13 5 -10 10 3 6 8 10 10 10 2 0 7 -4 10 -10z m-25 -85 c0 -8 -4 -15 -10
-15 -5 0 -7 7 -4 15 4 8 8 15 10 15 2 0 4 -7 4 -15z m37 -51 c-3 -3 -12 -4
-19 -1 -8 3 -5 6 6 6 11 1 17 -2 13 -5z m160 -176 c7 -1 14 -7 17 -14 4 -9 -4
-12 -25 -9 -33 4 -37 -2 -11 -21 15 -12 13 -13 -21 -14 -23 0 -36 4 -32 10 3
6 -1 10 -9 10 -9 0 -16 5 -16 10 0 6 8 10 17 8 10 -2 18 3 19 10 1 6 2 15 3
18 0 4 11 3 24 -1 12 -3 27 -7 34 -7z"/>
<path d="M4553 5445 c0 -8 4 -12 9 -9 5 3 6 10 3 15 -9 13 -12 11 -12 -6z"/>
<path d="M4225 5439 c-22 -6 -48 -8 -57 -5 -9 2 -18 1 -20 -4 -2 -4 -22 -9
-45 -12 -36 -5 -41 -4 -35 11 4 11 -5 8 -30 -11 -25 -19 -38 -24 -41 -15 -4 9
-7 9 -15 -1 -5 -7 -16 -10 -24 -7 -17 7 -23 -4 -32 -60 -6 -35 13 -95 30 -95
17 0 24 -24 34 -109 4 -40 12 -77 17 -82 4 -4 23 -10 42 -11 20 -2 47 -15 69
-35 21 -20 47 -33 61 -33 21 0 23 2 11 10 -10 7 -11 10 -2 10 7 0 15 -6 18
-14 3 -8 20 -17 37 -21 18 -4 39 -10 47 -12 8 -2 32 -6 54 -7 36 -2 37 -2 20
12 -18 14 -18 14 1 7 11 -4 31 -8 45 -9 14 -2 43 -6 65 -9 38 -6 39 -6 8 3
-18 6 -33 12 -33 14 0 2 31 4 69 4 86 0 112 8 104 29 -3 8 0 19 8 25 10 7 8 8
-8 5 -13 -3 -23 -2 -23 3 0 4 -16 6 -35 3 -43 -4 -46 9 -5 24 21 8 30 8 30 0
0 -5 3 -7 7 -4 3 4 13 2 20 -5 11 -9 16 -9 23 1 4 8 13 10 20 6 9 -6 11 -4 5
5 -6 10 -4 12 9 7 10 -4 31 -7 48 -7 27 0 29 -2 17 -16 -12 -15 -9 -16 23 -11
21 3 58 -3 90 -14 65 -23 91 -25 65 -5 -16 12 -16 14 -1 20 8 3 30 6 46 6 46
0 31 7 -30 14 -30 3 -66 13 -80 21 -15 9 -20 14 -12 13 8 -1 30 2 48 6 26 6
32 12 32 34 0 22 -2 24 -11 12 -8 -12 -9 -11 -6 5 2 11 8 19 14 18 7 -1 10 9
8 25 -2 15 1 32 6 39 7 7 6 14 -1 18 -14 9 -32 -4 -23 -18 4 -7 -1 -6 -10 2
-12 10 -14 17 -7 26 8 9 3 17 -15 29 -14 9 -23 21 -20 26 4 6 1 10 -5 10 -6 0
-9 4 -6 9 8 12 -13 28 -46 36 -16 4 -25 11 -22 16 3 5 -4 9 -15 9 -10 0 -21 4
-23 10 -1 5 -27 12 -56 15 -29 2 -61 9 -72 15 -10 5 -25 10 -32 9 -7 0 3 -8
22 -16 19 -9 29 -18 22 -20 -15 -6 -102 35 -102 49 0 6 -21 7 -56 2 -79 -9
-174 -10 -174 -1 0 9 -13 8 -65 -4z m610 -269 c-3 -5 -10 -10 -16 -10 -5 0 -9
5 -9 10 0 6 7 10 16 10 8 0 12 -4 9 -10z m55 -42 c0 -15 -4 -30 -10 -33 -5 -3
-10 -1 -10 4 0 6 -3 10 -7 9 -5 -1 -21 6 -37 17 l-29 19 24 7 c50 12 69 6 69
-23z m-331 -47 c7 -5 9 -11 5 -14 -5 -3 -15 1 -22 9 -14 16 -5 18 17 5z m-51
-8 c-10 -2 -26 -2 -35 0 -10 3 -2 5 17 5 19 0 27 -2 18 -5z m-378 -33 c8 -5
12 -11 10 -14 -3 -2 -14 2 -24 10 -22 15 -10 19 14 4z m390 0 c0 -5 -5 -10
-11 -10 -5 0 -7 5 -4 10 3 6 8 10 11 10 2 0 4 -4 4 -10z m-90 -9 c0 -6 -4 -13
-10 -16 -5 -3 -10 1 -10 9 0 9 5 16 10 16 6 0 10 -4 10 -9z m60 -1 c0 -5 -7
-7 -15 -4 -8 4 -15 8 -15 10 0 2 7 4 15 4 8 0 15 -4 15 -10z"/>
<path d="M2 5320 c0 -14 2 -19 5 -12 2 6 2 18 0 25 -3 6 -5 1 -5 -13z"/>
<path d="M3910 5261 c0 -6 4 -13 10 -16 6 -3 7 1 4 9 -7 18 -14 21 -14 7z"/>
<path d="M5482 4942 c-40 -23 -65 -46 -76 -69 -21 -45 -21 -45 19 -22 19 12
35 26 35 32 0 6 7 5 16 -4 13 -13 52 -135 56 -176 1 -7 5 -10 9 -7 4 2 9 -2
12 -8 8 -25 39 56 52 135 11 70 11 85 -3 113 -21 46 -50 48 -120 6z"/>
<path d="M2346 4765 c-21 -19 -34 -35 -30 -35 4 0 -7 -12 -23 -27 -17 -16 -33
-42 -36 -59 -7 -39 23 -93 52 -91 11 0 18 4 15 8 -6 11 24 31 36 24 5 -3 13 1
16 9 3 9 12 16 20 16 8 0 14 8 14 19 0 10 9 30 21 45 20 25 20 28 4 76 -20 61
-38 64 -89 15z"/>
<path d="M5313 4772 c-18 -11 -34 -62 -27 -86 3 -11 17 -44 30 -72 13 -28 25
-66 27 -84 2 -23 8 -34 20 -36 19 -3 41 28 29 42 -4 5 3 0 16 -10 12 -11 21
-25 18 -32 -3 -8 1 -11 9 -8 9 4 12 -1 10 -13 -2 -10 -4 -18 -6 -18 -1 0 -3
-10 -4 -22 -3 -29 22 -38 35 -13 12 23 10 39 -10 61 -8 10 -15 35 -14 58 0 23
-3 41 -8 41 -4 0 -8 7 -8 15 0 8 -9 24 -20 35 -11 11 -17 20 -13 20 4 0 2 5
-5 12 -7 7 -12 20 -12 29 0 27 -30 32 -51 8 -11 -12 -19 -27 -19 -32 0 -6 -3
-8 -6 -5 -3 4 1 19 10 36 12 22 12 32 3 41 -9 9 -9 14 3 21 8 5 12 11 9 14 -2
3 -10 2 -16 -2z"/>
<path d="M4281 4627 c-11 -15 7 -38 39 -50 11 -4 10 -6 -5 -7 -11 -1 -24 -2
-29 -1 -5 1 -6 -8 -2 -21 3 -13 6 -29 6 -35 0 -7 5 -13 10 -13 6 0 10 11 10
25 0 16 6 25 16 25 9 0 12 -5 8 -12 -4 -6 1 -17 11 -24 10 -8 16 -17 12 -21
-4 -3 10 -17 31 -29 20 -13 33 -24 28 -24 -5 0 7 -13 25 -30 19 -16 30 -30 26
-30 -5 0 -2 -7 7 -15 15 -15 21 -99 6 -90 -5 3 -6 -4 -3 -15 4 -15 1 -18 -14
-16 -13 3 -19 -2 -20 -15 -1 -11 2 -17 8 -14 5 4 9 1 9 -5 0 -6 -7 -13 -15
-16 -21 -8 -19 -23 3 -18 10 3 22 -4 30 -17 12 -19 12 -21 0 -16 -11 4 -14 -1
-10 -18 3 -18 -3 -27 -27 -40 -26 -13 -47 -15 -119 -8 -133 12 -319 8 -383 -9
-62 -16 -69 -16 -153 5 -37 10 -87 14 -130 11 -166 -10 -193 -12 -226 -18 -66
-11 -107 -9 -140 7 -18 10 -39 17 -47 17 -17 0 -17 15 2 33 13 13 13 17 0 27
-8 7 -12 17 -8 23 4 6 -2 8 -15 5 -12 -4 -20 -2 -16 3 3 5 0 9 -6 9 -7 0 -10
7 -6 15 3 8 1 15 -4 15 -6 0 -10 5 -10 10 0 6 9 10 21 10 16 0 20 5 17 28 -2
22 1 27 18 25 18 -2 21 2 17 20 -4 18 -3 19 6 7 6 -8 11 -10 11 -4 0 5 -5 15
-11 21 -7 7 -3 16 14 30 14 10 26 28 28 39 3 10 29 36 59 56 54 37 77 47 66
29 -5 -7 15 -21 30 -21 11 0 2 58 -11 78 -14 20 -14 21 0 16 8 -3 15 -1 15 5
0 6 -3 11 -7 11 -16 0 -98 -32 -103 -39 -3 -5 -20 -16 -38 -25 -44 -23 -72
-47 -72 -64 0 -8 -6 -12 -14 -9 -14 6 -76 -45 -76 -62 0 -6 -7 -7 -17 -4 -10
4 -14 2 -10 -4 3 -5 -6 -16 -21 -24 -15 -8 -36 -24 -47 -37 -16 -17 -24 -19
-33 -10 -9 9 -13 7 -18 -5 -3 -9 -10 -15 -14 -12 -4 3 -10 -4 -13 -14 -3 -15
-11 -18 -28 -15 -22 5 -23 4 -7 -9 18 -14 14 -27 -6 -27 -13 0 -18 49 -5 51 9
1 21 4 37 9 4 1 -6 6 -21 10 -18 5 -39 5 -55 -2 -25 -10 -26 -11 -7 -18 16 -7
17 -9 3 -9 -9 -1 -19 -7 -21 -13 -4 -8 -6 -7 -6 3 -1 9 -8 20 -17 23 -24 9
-31 7 -11 -5 9 -5 17 -13 17 -17 0 -4 -8 -8 -17 -8 -10 -1 -27 -5 -37 -9 -14
-6 -17 -5 -12 3 5 8 2 10 -9 6 -12 -5 -13 -10 -6 -17 6 -6 11 -18 11 -26 0
-14 -2 -14 -10 -1 -5 8 -12 11 -17 7 -10 -10 18 -28 34 -22 7 2 10 -2 6 -11
-6 -17 -9 -17 -32 -5 -15 9 -17 6 -16 -17 1 -15 5 -42 9 -60 5 -19 9 -43 11
-55 7 -54 27 -122 38 -129 9 -6 9 -8 0 -8 -7 0 -18 9 -25 20 -21 33 -29 22
-13 -17 9 -21 19 -40 23 -43 10 -6 9 -21 -1 -37 -11 -17 42 -66 62 -58 9 3 5
-3 -8 -13 -15 -12 -21 -24 -16 -32 6 -9 9 -9 16 1 7 11 9 10 9 -5 0 -16 2 -16
16 -6 12 11 18 10 31 -3 15 -15 14 -19 -18 -49 -38 -37 -70 -40 -61 -6 5 19 6
20 18 4 12 -17 13 -16 24 3 6 12 18 21 26 21 8 0 12 5 9 10 -8 13 -50 2 -92
-23 -36 -21 -46 -35 -12 -17 20 11 20 11 4 -14 -10 -14 -13 -27 -9 -27 5 -1
14 -2 19 -3 11 -1 15 -9 15 -27 0 -8 -5 -8 -15 1 -54 45 43 -122 130 -226 30
-35 55 -70 55 -78 0 -7 9 -21 20 -31 11 -10 20 -23 19 -29 -2 -18 13 -56 21
-56 4 0 15 -16 24 -35 9 -19 22 -35 29 -35 7 0 6 -4 -3 -10 -13 -9 -13 -10 1
-10 11 0 15 -9 13 -35 -2 -19 1 -35 6 -35 5 0 7 -7 4 -15 -4 -9 0 -15 10 -15
9 0 16 -4 16 -9 0 -5 7 -11 15 -15 8 -3 14 -2 12 2 -2 8 6 12 25 12 6 0 9 -3
5 -6 -3 -4 0 -19 8 -34 14 -27 14 -28 -8 -23 -18 5 -16 0 13 -25 19 -16 37
-26 38 -21 5 14 26 11 48 -7 18 -15 18 -15 -11 -10 -16 3 -25 3 -18 0 7 -3 10
-11 7 -18 -3 -7 6 -18 20 -24 20 -9 24 -9 20 2 -3 8 -1 17 5 21 6 3 11 -1 11
-11 0 -13 3 -14 13 -5 10 8 14 7 14 -4 0 -18 -39 -30 -63 -21 -11 4 -15 2 -11
-8 3 -8 3 -17 -1 -19 -4 -2 -1 -2 5 -1 7 2 26 -9 43 -23 22 -18 34 -23 42 -15
7 7 4 14 -11 21 -32 17 -25 28 19 33 26 2 47 -2 62 -13 21 -16 23 -16 39 2 11
13 20 16 24 9 3 -5 0 -10 -7 -10 -8 -1 -6 -6 6 -15 11 -8 14 -15 7 -15 -7 0
-9 -5 -6 -10 4 -6 10 -8 15 -5 5 3 11 1 15 -5 3 -5 14 -10 23 -9 13 0 12 3 -5
11 -27 13 -31 30 -5 21 27 -10 47 -27 50 -42 2 -11 0 -12 -10 -3 -8 6 -19 7
-26 3 -9 -5 -5 -11 14 -20 21 -9 24 -14 15 -25 -9 -11 -9 -16 1 -20 7 -3 3 -4
-10 -2 -18 4 -22 1 -18 -11 5 -11 2 -13 -11 -8 -10 4 -26 10 -36 12 -26 8 -11
-22 19 -35 13 -7 24 -16 24 -21 0 -16 52 -62 88 -77 17 -8 32 -16 32 -19 0
-11 -75 10 -92 27 -19 19 -44 25 -33 8 3 -5 12 -10 19 -10 7 0 13 -7 13 -14 0
-12 -5 -13 -20 -5 -30 17 -31 3 -1 -20 29 -23 59 -27 69 -11 4 6 11 8 16 4 6
-3 0 -14 -12 -25 -29 -25 -15 -40 45 -46 46 -6 57 -15 34 -29 -7 -4 7 -13 33
-20 54 -17 52 -17 43 -1 -4 6 -4 9 1 5 4 -4 13 -4 19 2 8 6 12 3 13 -11 1 -11
-2 -17 -8 -14 -15 10 -10 -12 6 -25 8 -7 15 -9 15 -5 0 5 10 0 21 -11 22 -19
22 -19 10 3 -18 34 -13 36 14 6 13 -15 25 -22 25 -15 0 6 7 12 15 12 14 0 33
52 27 73 -1 4 3 7 9 7 6 0 9 -7 5 -15 -3 -8 -1 -15 4 -15 6 0 10 4 10 10 0 15
33 50 42 44 4 -3 8 -1 8 5 0 6 6 8 14 5 7 -3 16 1 19 9 5 14 -6 18 -55 18 -26
0 -44 22 -32 40 3 5 12 9 21 9 11 0 13 -3 5 -12 -8 -10 -2 -13 23 -14 23 0 32
3 28 13 -6 15 -67 28 -84 17 -9 -5 -11 -1 -7 14 4 12 2 22 -3 22 -5 0 -9 7 -9
16 0 8 4 13 9 10 5 -4 7 3 4 13 -4 16 0 19 26 17 39 -3 53 -16 18 -16 -15 0
-27 -4 -27 -9 0 -4 16 -7 35 -4 39 4 43 -1 18 -25 -12 -12 -18 -13 -21 -4 -2
6 -8 12 -13 12 -4 0 -6 -6 -3 -14 5 -12 40 -14 107 -7 5 1 5 6 2 12 -4 6 2 5
14 -3 25 -15 9 -28 -30 -24 -15 2 -26 -2 -26 -10 0 -6 6 -10 14 -7 7 3 13 0
13 -6 0 -10 48 5 60 20 9 11 65 26 92 24 17 -1 24 2 22 10 -3 7 -20 11 -40 9
-19 -1 -32 2 -28 7 3 5 15 9 27 10 12 0 31 4 42 9 16 7 12 9 -17 8 -21 -1 -40
1 -44 5 -4 4 1 7 12 7 10 0 28 7 39 16 17 13 18 16 5 25 -12 9 -11 9 5 4 34
-13 58 -11 63 5 4 12 2 13 -9 3 -10 -8 -20 -9 -29 -3 -12 8 -13 10 -1 10 8 0
28 11 45 23 17 13 38 26 46 30 11 4 11 6 2 6 -8 1 -26 -7 -40 -17 -15 -10 -36
-22 -46 -26 -16 -5 -17 -4 -7 8 7 9 22 18 33 22 15 4 18 12 14 30 -4 14 -2 24
4 24 6 0 8 -4 5 -10 -4 -6 7 -10 27 -9 31 1 31 2 8 9 -22 6 -23 8 -7 15 10 4
20 5 23 2 5 -5 30 4 107 36 51 22 27 27 -25 6 -82 -33 -112 -38 -127 -21 -12
12 -11 13 7 7 18 -5 21 -3 16 12 -5 14 -4 15 4 4 12 -17 61 -9 120 19 32 16
47 18 68 10 15 -6 29 -8 32 -5 3 3 0 5 -7 5 -7 0 -9 5 -6 10 3 6 -3 10 -14 10
-11 0 -22 4 -25 9 -4 5 3 7 14 4 18 -5 82 26 135 65 16 11 16 13 3 9 -10 -4
-28 -2 -40 3 l-23 9 24 0 c19 1 22 5 17 24 -4 12 -8 29 -9 37 -1 8 -6 18 -11
22 -11 8 10 29 44 45 22 10 23 12 5 13 -16 1 -15 3 8 13 16 7 27 14 26 17 -4
10 13 50 22 50 5 0 9 9 9 20 0 11 4 20 8 20 4 0 8 9 9 20 1 11 13 35 27 53 14
19 26 41 26 50 0 10 5 17 12 17 6 0 9 3 5 6 -6 6 4 20 36 53 10 11 19 25 21
32 1 8 7 24 14 35 6 12 9 24 6 26 -10 10 -13 48 -3 43 5 -4 7 -10 4 -15 -3 -5
-1 -11 5 -15 5 -3 10 1 10 9 0 9 5 16 11 16 6 0 8 9 4 21 -5 13 -3 19 3 15 22
-13 23 29 2 46 -15 12 -17 18 -8 18 8 0 19 -5 25 -11 7 -7 12 -5 15 9 5 17 2
20 -18 16 -26 -5 -31 5 -13 23 9 9 7 16 -6 29 -17 17 -17 17 -10 -5 6 -20 4
-23 -9 -18 -9 4 -16 2 -16 -2 0 -5 6 -12 13 -14 6 -3 1 -6 -14 -6 -22 -1 -25
3 -26 34 -1 23 4 35 12 35 9 0 11 8 7 23 -5 20 -4 21 14 7 18 -14 18 -14 5 3
-9 11 -11 30 -7 57 4 29 3 40 -6 40 -8 0 -9 3 -3 8 6 4 11 14 13 22 2 8 8 17
13 18 5 2 6 9 2 15 -4 7 0 8 12 3 13 -5 15 -3 8 6 -15 19 -14 75 2 88 8 6 11
18 8 26 -3 8 1 14 9 14 7 0 19 14 25 30 12 32 3 39 -19 17 -7 -8 -21 -14 -31
-14 -13 0 -16 7 -13 34 3 19 0 33 -6 33 -6 0 -5 7 3 17 10 11 10 14 2 9 -7 -4
-13 -2 -13 4 0 6 7 13 15 16 8 4 13 10 10 14 -3 5 0 12 6 15 7 5 3 14 -12 28
-20 19 -21 21 -4 33 16 12 15 14 -9 20 -16 4 -25 12 -22 19 3 8 -2 12 -12 10
-9 -2 -20 -4 -24 -4 -5 -1 -8 -8 -8 -17 0 -14 -3 -14 -15 -4 -8 7 -15 19 -15
26 0 8 -4 14 -10 14 -5 0 -10 -5 -10 -11 0 -6 -11 -8 -29 -4 -21 4 -30 2 -34
-9 -4 -9 -12 -16 -18 -16 -7 0 -9 3 -6 6 11 11 -14 46 -29 40 -8 -3 -14 -1
-14 4 0 6 -5 9 -11 8 -6 -2 -14 3 -17 11 -3 9 0 11 9 6 8 -5 11 -4 6 1 -5 5
-18 9 -30 9 -12 1 -21 6 -19 13 1 7 -4 12 -11 12 -16 0 -61 34 -101 78 -17 17
-37 32 -43 32 -7 0 -13 5 -13 11 0 5 -4 8 -9 5 -5 -3 -11 1 -15 9 -3 8 -13 15
-22 15 -10 0 -14 3 -11 7 9 8 -93 66 -115 65 -11 0 -15 5 -11 14 7 18 -1 18
-16 1z m234 -327 c3 -6 -1 -7 -9 -4 -18 7 -21 14 -7 14 6 0 13 -4 16 -10z
m300 -20 c3 -5 1 -10 -4 -10 -6 0 -11 5 -11 10 0 6 2 10 4 10 3 0 8 -4 11 -10z
m-1906 -53 c-2 -1 -13 -9 -24 -17 -19 -14 -19 -14 -6 3 7 9 18 17 24 17 6 0 8
-1 6 -3z m1638 -3 c-4 -4 2 -14 12 -24 13 -11 17 -21 11 -30 -7 -12 -10 -11
-16 5 -4 11 -14 24 -21 28 -15 9 -8 27 9 27 6 0 8 -3 5 -6z m393 -18 c0 -2 -7
-7 -16 -10 -8 -3 -12 -2 -9 4 6 10 25 14 25 6z m-61 -29 c12 -15 12 -17 -3
-11 -9 3 -16 13 -16 22 0 8 1 13 3 11 1 -2 9 -12 16 -22z m-1969 -19 c0 -5 -5
-6 -12 -2 -8 5 -9 0 -4 -17 13 -47 15 -59 6 -59 -4 0 -6 -10 -3 -22 3 -13 3
-21 0 -18 -11 10 -16 60 -6 60 5 0 4 6 -3 14 -9 10 -15 11 -20 2 -12 -17 -9
-1 4 31 6 15 10 32 9 37 -1 5 5 4 13 -4 9 -7 16 -17 16 -22z m1830 -117 c0 -5
9 -13 20 -16 11 -4 18 -10 15 -15 -3 -5 1 -15 9 -23 16 -15 4 -37 -20 -37 -7
0 -10 -8 -7 -19 3 -10 -1 -22 -8 -27 -9 -5 -10 -2 -5 12 4 12 -3 8 -18 -11
-21 -24 -27 -27 -35 -16 -7 11 -11 5 -16 -22 -6 -33 -9 -36 -23 -25 -13 11
-15 10 -10 -3 4 -9 2 -21 -4 -27 -8 -8 -8 -15 1 -26 9 -10 9 -16 1 -21 -6 -4
-9 -13 -6 -21 8 -20 -5 -75 -15 -68 -8 5 -39 69 -39 81 0 3 6 3 14 0 8 -3 17
1 20 9 7 18 -5 18 -29 0 -17 -12 -18 -18 -7 -40 7 -15 8 -26 2 -26 -6 0 -10
-7 -10 -16 0 -11 -6 -14 -22 -9 -20 5 -19 3 5 -12 15 -10 27 -23 27 -30 0 -7
7 -10 18 -7 15 5 15 4 -2 -10 -19 -15 -41 -12 -31 4 6 10 -13 25 -21 17 -3 -3
-1 -15 6 -26 9 -17 8 -22 -4 -27 -11 -4 -13 -15 -9 -41 6 -33 4 -36 -13 -30
-18 7 -18 6 -1 -7 9 -7 17 -21 17 -31 0 -14 -3 -15 -15 -5 -9 7 -19 10 -22 6
-4 -4 -3 -10 3 -14 16 -10 13 -44 -2 -38 -8 3 -11 0 -7 -10 3 -7 9 -14 14 -14
14 0 10 -17 -5 -23 -9 -4 -13 -1 -10 6 2 7 -4 17 -15 24 -15 10 -18 9 -17 -5
0 -10 -5 -16 -14 -14 -8 2 -20 -5 -27 -14 -7 -10 -13 -15 -13 -11 0 4 -9 3
-20 -3 -17 -9 -19 -8 -13 7 6 17 5 17 -14 0 -15 -13 -22 -15 -25 -6 -3 9 -7 7
-11 -5 -4 -10 -3 -15 3 -11 6 3 10 2 10 -4 0 -5 -6 -11 -12 -14 -10 -3 -10 -8
2 -23 8 -10 10 -16 6 -12 -5 4 -16 2 -24 -5 -12 -10 -16 -9 -20 1 -3 10 -7 10
-18 1 -8 -6 -11 -16 -7 -23 4 -6 -1 -4 -11 4 -16 13 -20 12 -38 -13 -11 -15
-26 -27 -34 -27 -8 0 -14 -6 -15 -12 0 -10 -2 -10 -6 0 -4 10 -10 10 -28 -2
-16 -11 -31 -13 -46 -8 -33 12 -69 3 -62 -15 5 -13 3 -14 -18 -2 -13 7 -31 12
-40 11 -9 -2 -19 4 -23 13 -5 15 -8 15 -28 1 -24 -17 -63 -22 -54 -7 3 5 -1
11 -9 14 -9 4 -12 1 -9 -7 3 -9 -12 -19 -46 -30 -44 -14 -53 -15 -65 -2 -13
12 -13 15 0 20 8 3 15 1 15 -4 0 -6 7 -10 15 -10 18 0 19 7 2 25 -9 8 -19 10
-29 4 -9 -5 -27 -8 -39 -7 -15 2 -24 -2 -24 -11 0 -21 -20 -24 -35 -6 -11 13
-10 15 6 9 16 -5 16 -4 4 5 -8 6 -23 8 -33 5 -16 -5 -18 -2 -13 18 3 12 3 17
0 11 -3 -7 -15 -13 -25 -13 -13 0 -18 4 -13 12 4 7 3 8 -4 4 -7 -4 -12 -15
-12 -24 -1 -16 -1 -15 -11 1 -5 9 -7 22 -4 27 4 6 -6 10 -22 11 -23 0 -25 2
-9 8 14 5 16 10 8 15 -7 4 -16 4 -22 1 -5 -3 -10 -2 -10 4 0 6 -7 8 -15 5 -11
-5 -13 -2 -9 10 3 9 1 16 -6 16 -6 0 -8 -4 -5 -10 10 -16 -33 -12 -59 5 -18
12 -30 13 -50 6 -19 -8 -26 -7 -26 2 0 8 -3 8 -8 1 -4 -6 -13 -4 -24 8 -10 10
-13 18 -8 18 15 0 12 17 -6 35 -9 9 -14 19 -11 22 8 8 -11 43 -23 43 -6 0 -6
-10 1 -26 11 -30 4 -43 -13 -26 -6 6 -11 35 -11 64 0 40 -1 47 -7 28 -7 -22
-8 -21 -9 13 -1 20 -5 37 -11 37 -22 0 -25 -2 -22 -16 2 -8 -5 -14 -17 -14
-15 0 -19 5 -14 17 5 12 3 14 -8 8 -8 -4 -4 3 8 15 19 20 24 21 38 10 8 -7 18
-11 20 -8 3 3 -2 11 -10 18 -12 10 -21 10 -41 2 -23 -11 -24 -10 -14 8 8 15 8
20 -1 20 -6 0 -9 7 -5 15 4 10 -1 15 -14 15 -11 0 -20 5 -20 10 0 6 4 10 9 10
15 0 7 50 -9 60 -13 8 -13 13 -2 31 13 20 12 21 -7 16 -21 -5 -46 14 -34 26
11 12 -20 58 -34 52 -8 -2 -12 -1 -8 4 3 5 2 11 -2 14 -5 2 -3 3 2 1 6 -1 11
10 10 25 0 14 4 29 9 33 5 3 10 16 11 27 1 15 -4 20 -19 18 -15 -1 -21 4 -22
18 -1 15 0 16 3 3 5 -21 12 -22 33 -7 11 8 12 12 2 16 -13 5 -7 23 9 23 6 0 8
-4 5 -9 -3 -5 8 -14 24 -20 17 -5 30 -16 29 -23 0 -10 -2 -10 -6 0 -2 6 -11
12 -19 12 -11 0 -10 -4 4 -18 9 -11 19 -18 22 -16 3 1 12 -1 20 -7 13 -7 13
-9 1 -9 -20 0 18 -29 38 -30 8 0 23 -8 34 -17 18 -17 19 -17 16 7 -3 18 -9 24
-24 22 -14 -2 -16 0 -7 6 7 5 31 6 52 2 26 -5 37 -4 33 3 -4 6 2 8 16 4 15 -3
24 0 28 9 3 8 12 13 20 10 8 -3 11 -1 8 4 -8 13 41 13 66 -1 11 -5 63 -12 117
-15 135 -6 181 -11 225 -22 20 -6 39 -6 42 -2 3 5 29 7 58 5 28 -3 79 0 112 6
33 7 103 13 155 14 134 4 198 11 247 25 30 9 53 10 82 3 31 -8 38 -8 35 2 -3
7 -1 16 5 20 6 3 11 1 11 -4 0 -6 7 -11 15 -11 9 0 23 -16 32 -35 9 -19 20
-32 25 -29 5 3 4 11 -1 18 -13 16 -4 27 15 19 8 -3 14 -14 14 -24 0 -18 1 -18
19 -1 10 9 18 19 17 22 -1 14 29 47 39 43 7 -2 15 3 19 12 3 9 11 13 16 10 7
-4 9 3 6 18 -4 21 -1 24 16 19 14 -3 19 -1 14 6 -4 7 -2 12 3 12 6 0 11 -4 11
-9z m96 -14 c1 -12 -5 -17 -22 -17 -24 0 -29 18 -9 32 15 11 28 4 31 -15z
m143 -32 c0 -5 -9 1 -19 14 -11 13 -20 28 -20 35 0 6 9 0 20 -14 11 -14 20
-29 19 -35z m-29 0 c14 -19 14 -19 -2 -6 -10 7 -18 18 -18 24 0 6 1 8 3 6 1
-2 9 -13 17 -24z m-190 -111 c0 -2 -9 -8 -19 -13 -16 -9 -18 -8 -14 8 3 12 11
17 19 14 8 -3 14 -7 14 -9z m170 -87 c0 -5 -4 -5 -10 -2 -5 3 -10 14 -10 23 0
15 2 15 10 2 5 -8 10 -19 10 -23z m-2 -40 c2 -11 -3 -17 -15 -16 -11 0 -13 3
-5 6 10 4 10 8 0 21 -11 13 -11 14 2 10 8 -2 16 -12 18 -21z m-1993 -7 c3 -5
1 -10 -4 -10 -6 0 -11 5 -11 10 0 6 2 10 4 10 3 0 8 -4 11 -10z m1965 -30 c0
-5 -7 -10 -16 -10 -8 0 -12 5 -9 10 3 6 10 10 16 10 5 0 9 -4 9 -10z m-12 -44
c-7 -7 -19 -11 -27 -8 -11 4 -10 7 5 13 29 12 36 10 22 -5z m5 -66 c4 -16 0
-20 -16 -19 -12 0 -16 3 -9 6 6 2 12 11 12 19 0 20 7 17 13 -6z m45 -9 c8 -4
13 -11 13 -15 -3 -19 1 -25 17 -29 13 -4 12 -5 -5 -6 -15 -1 -25 8 -32 27
l-11 27 3 -26 c3 -21 0 -25 -15 -21 -19 5 -25 22 -8 22 6 0 10 7 10 15 0 17 9
19 28 6z m-1986 -23 c-7 -7 -12 -8 -12 -2 0 6 3 14 7 17 3 4 9 5 12 2 2 -3 -1
-11 -7 -17z m73 12 c-3 -5 -12 -10 -18 -10 -7 0 -6 4 3 10 19 12 23 12 15 0z
m1542 -82 c-3 -8 -6 -5 -6 6 -1 11 2 17 5 13 3 -3 4 -12 1 -19z m-1424 -68 c7
0 6 -4 -3 -10 -19 -12 -33 -13 -26 -1 4 5 3 11 -1 14 -5 2 -2 2 5 0 8 -1 19
-3 25 -3z m57 -10 c0 -5 -2 -10 -4 -10 -3 0 -8 5 -11 10 -3 6 -1 10 4 10 6 0
11 -4 11 -10z m-44 -34 c-1 -19 -4 -21 -18 -12 -21 13 -23 22 -5 29 22 9 25 7
23 -17z m87 -51 c4 -8 2 -17 -3 -20 -6 -4 -10 3 -10 14 0 25 6 27 13 6z m1261
-4 c4 -5 -3 -7 -14 -4 -23 6 -26 13 -6 13 8 0 17 -4 20 -9z m-1111 -60 c3 -14
1 -18 -9 -14 -15 6 -18 16 -7 26 9 10 10 9 16 -12z m52 -1 c3 -5 -1 -10 -9
-10 -9 0 -16 5 -16 10 0 6 4 10 9 10 6 0 13 -4 16 -10z m939 -16 c5 -14 4 -15
-9 -4 -17 14 -19 20 -6 20 5 0 12 -7 15 -16z m-911 -19 c-3 -9 -8 -14 -10 -11
-3 3 -2 9 2 15 9 16 15 13 8 -4z m767 -21 c0 -8 -4 -12 -10 -9 -5 3 -10 10
-10 16 0 5 5 9 10 9 6 0 10 -7 10 -16z m-645 -34 c-3 -5 -11 -10 -16 -10 -6 0
-7 5 -4 10 3 6 11 10 16 10 6 0 7 -4 4 -10z m345 5 c0 -2 -10 -10 -22 -16 -21
-11 -22 -11 -9 4 13 16 31 23 31 12z m-763 -201 c-3 -3 -12 -4 -19 -1 -8 3 -5
6 6 6 11 1 17 -2 13 -5z m1488 -53 c7 -12 -12 -24 -25 -16 -11 7 -4 25 10 25
5 0 11 -4 15 -9z m-1411 -26 c3 -8 1 -15 -4 -15 -6 0 -10 7 -10 15 0 8 2 15 4
15 2 0 6 -7 10 -15z m1384 -28 c13 -15 -1 -43 -16 -33 -6 3 -13 2 -17 -4 -3
-5 -11 -10 -16 -10 -6 0 3 12 18 26 19 17 22 24 10 20 -11 -3 -16 -2 -12 4 8
14 20 13 33 -3z m-134 -33 c13 -5 13 -8 1 -20 -18 -18 -21 -18 -21 6 0 11 1
20 2 20 1 0 9 -3 18 -6z m-19 -64 c-3 -5 -12 -10 -18 -10 -7 0 -6 4 3 10 19
12 23 12 15 0z m-1009 -38 c-4 -3 -14 2 -24 12 -16 18 -16 18 6 6 13 -6 21
-14 18 -18z m853 -47 c-9 -8 -78 -12 -73 -4 3 5 21 9 41 9 20 0 34 -2 32 -5z
m11 -31 c0 -2 -9 -4 -21 -4 -11 0 -18 4 -14 10 5 8 35 3 35 -6z m-695 -124 c3
-5 2 -10 -4 -10 -5 0 -13 5 -16 10 -3 6 -2 10 4 10 5 0 13 -4 16 -10z m550 0
c3 -5 -3 -10 -15 -10 -12 0 -18 5 -15 10 3 6 10 10 15 10 5 0 12 -4 15 -10z
m-265 -50 c0 -5 -4 -10 -9 -10 -6 0 -13 5 -16 10 -3 6 1 10 9 10 9 0 16 -4 16
-10z m18 -24 c0 -16 -5 -23 -14 -19 -10 4 -11 9 -1 24 15 24 15 24 15 -5z
m-318 -36 c0 -5 -2 -10 -4 -10 -3 0 -8 5 -11 10 -3 6 -1 10 4 10 6 0 11 -4 11
-10z m350 -35 c0 -8 -4 -15 -10 -15 -5 0 -7 7 -4 15 4 8 8 15 10 15 2 0 4 -7
4 -15z"/>
<path d="M4696 3915 c4 -8 10 -12 15 -9 14 8 10 24 -6 24 -9 0 -12 -6 -9 -15z"/>
<path d="M3071 3814 c0 -11 3 -14 6 -6 3 7 2 16 -1 19 -3 4 -6 -2 -5 -13z"/>
<path d="M3187 3823 c-10 -9 -9 -23 1 -23 5 0 9 7 9 15 0 17 -1 18 -10 8z"/>
<path d="M3100 3770 c0 -5 5 -10 11 -10 5 0 7 5 4 10 -3 6 -8 10 -11 10 -2 0
-4 -4 -4 -10z"/>
<path d="M3790 3772 c0 -5 -26 -8 -59 -6 -71 4 -103 -12 -77 -38 19 -20 21
-48 4 -48 -10 0 -10 -2 0 -9 8 -4 14 -12 15 -17 1 -5 10 -9 20 -8 9 0 17 -3
17 -6 0 -4 30 -7 67 -6 52 1 67 -2 70 -14 5 -17 63 -27 63 -10 0 5 9 10 19 10
11 0 23 5 26 10 3 6 11 10 16 10 6 0 7 -5 3 -12 -5 -8 -2 -9 10 -5 10 4 29 10
42 13 20 5 22 9 13 20 -8 9 -8 14 -1 14 6 0 14 -5 17 -10 7 -11 39 3 63 27 11
11 11 13 0 13 -10 0 -9 3 2 11 11 8 12 12 2 16 -6 2 -10 9 -7 13 11 18 -42 33
-117 34 -43 1 -78 -1 -78 -4 0 -8 -104 -5 -117 3 -7 5 -13 4 -13 -1z"/>
<path d="M3134 3645 c-7 -17 3 -35 19 -35 8 0 7 3 -2 9 -8 5 -11 16 -8 25 4 9
4 16 1 16 -2 0 -7 -7 -10 -15z"/>
<path d="M3205 3530 c3 -5 8 -10 11 -10 2 0 4 5 4 10 0 6 -5 10 -11 10 -5 0
-7 -4 -4 -10z"/>
<path d="M4441 3481 c-8 -5 -21 -7 -30 -5 -9 3 2 -5 24 -16 22 -11 33 -19 25
-19 -8 1 -23 1 -33 0 -17 -1 -17 -2 -2 -18 10 -10 19 -12 23 -6 4 5 15 12 25
16 21 8 23 27 3 27 -8 0 -16 7 -18 15 -2 10 -8 12 -17 6z"/>
<path d="M3350 3469 c0 -5 5 -7 10 -4 6 3 10 8 10 11 0 2 -4 4 -10 4 -5 0 -10
-5 -10 -11z"/>
<path d="M4368 3433 c7 -3 16 -2 19 1 4 3 -2 6 -13 5 -11 0 -14 -3 -6 -6z"/>
<path d="M4365 3409 c-10 -15 1 -23 20 -15 9 3 13 10 10 16 -8 13 -22 13 -30
-1z"/>
<path d="M3368 3393 c7 -3 16 -2 19 1 4 3 -2 6 -13 5 -11 0 -14 -3 -6 -6z"/>
<path d="M3307 3373 c-12 -11 -8 -19 13 -20 11 -1 23 3 26 9 5 7 2 8 -6 3 -7
-4 -15 -2 -19 4 -4 6 -10 8 -14 4z"/>
<path d="M3450 3370 c-13 -8 -13 -11 -1 -22 8 -8 11 -8 7 -1 -3 6 0 13 6 16 7
2 11 7 8 10 -3 3 -12 2 -20 -3z"/>
<path d="M3395 3340 c-3 -5 -1 -10 4 -10 6 0 11 5 11 10 0 6 -2 10 -4 10 -3 0
-8 -4 -11 -10z"/>
<path d="M3870 3236 c0 -2 7 -9 15 -16 12 -10 15 -10 15 4 0 9 -7 16 -15 16
-8 0 -15 -2 -15 -4z"/>
<path d="M4058 4486 c-15 -7 -38 -22 -52 -35 -27 -26 -79 -31 -114 -12 -10 5
-36 10 -58 9 -46 0 -67 4 -75 15 -8 11 -59 16 -59 6 0 -4 -37 -10 -82 -12
-134 -8 -159 -17 -123 -47 8 -7 15 -21 15 -31 0 -11 5 -19 10 -19 6 0 10 -7
10 -15 0 -8 8 -15 18 -16 14 0 14 -2 -3 -9 -19 -8 -19 -9 2 -9 25 -1 38 -16
23 -26 -14 -8 6 -35 26 -35 8 0 11 -6 8 -15 -4 -8 -1 -15 6 -15 6 0 8 -4 5
-10 -8 -13 5 -35 14 -23 3 6 19 13 36 17 l30 8 -29 -27 c-23 -21 -25 -26 -10
-23 11 2 24 10 31 18 11 13 12 13 13 -1 0 -17 61 -36 79 -25 5 3 12 -1 15 -10
3 -9 12 -14 20 -11 7 3 19 0 25 -6 7 -7 11 -7 11 -1 0 6 16 10 37 8 42 -2 148
28 136 40 -4 4 4 5 19 1 21 -5 29 -3 34 10 4 9 12 14 20 11 7 -3 17 6 23 22 5
15 10 21 10 15 1 -7 6 -13 12 -13 5 0 8 4 5 9 -3 5 0 11 8 14 7 3 16 15 19 26
3 12 1 19 -4 15 -5 -3 -9 0 -9 5 0 6 5 11 10 11 6 0 10 7 10 15 0 13 12 19 32
16 4 0 5 6 2 13 -3 8 3 19 15 26 12 6 21 17 21 25 0 17 20 56 33 66 5 3 -22 4
-60 2 -81 -5 -130 3 -135 21 -2 10 -9 10 -30 2z m52 -260 c0 -3 -4 -8 -10 -11
-5 -3 -10 -1 -10 4 0 6 5 11 10 11 6 0 10 -2 10 -4z"/>
<path d="M4796 4331 c-3 -5 1 -11 9 -14 9 -4 12 -1 8 9 -6 16 -10 17 -17 5z"/>
<path d="M2495 4307 c-6 -12 -20 -26 -32 -32 -13 -5 -23 -13 -23 -16 0 -4 -9
-5 -20 -2 -11 3 -20 1 -20 -5 0 -13 120 -12 137 1 10 7 9 15 -2 37 -20 39 -29
43 -40 17z"/>
<path d="M5230 4269 c0 -5 5 -7 10 -4 6 3 10 8 10 11 0 2 -4 4 -10 4 -5 0 -10
-5 -10 -11z"/>
<path d="M5245 4251 c-8 -14 36 -41 67 -41 18 0 28 5 28 15 0 9 -10 15 -26 15
-14 0 -34 5 -44 10 -12 6 -21 6 -25 1z"/>
<path d="M5176 4164 c-7 -18 16 -60 43 -81 28 -21 83 -14 139 17 28 17 52 33
52 36 0 3 -17 -4 -37 -16 -37 -22 -113 -35 -113 -19 0 4 -9 10 -19 14 -10 3
-24 19 -31 35 -14 34 -25 38 -34 14z"/>
<path d="M2557 4147 c-19 -14 -42 -22 -72 -22 -48 0 -59 -9 -22 -19 39 -10 67
-7 108 15 33 17 38 23 29 35 -7 8 -13 14 -14 13 0 0 -14 -10 -29 -22z"/>
<path d="M5025 4109 c-4 -6 -5 -12 -2 -15 2 -3 7 2 10 11 7 17 1 20 -8 4z"/>
<path d="M2760 3791 c0 -6 4 -13 10 -16 6 -3 7 1 4 9 -7 18 -14 21 -14 7z"/>
<path d="M4988 3673 c7 -3 16 -2 19 1 4 3 -2 6 -13 5 -11 0 -14 -3 -6 -6z"/>
<path d="M5 3359 c-10 -15 3 -25 16 -12 7 7 7 13 1 17 -6 3 -14 1 -17 -5z"/>
<path d="M33 3320 c-3 -11 -9 -17 -14 -14 -5 3 -7 10 -4 15 4 5 1 9 -5 9 -7 0
-10 -34 -8 -100 1 -55 6 -100 10 -100 4 0 8 6 8 13 0 8 4 7 11 -3 8 -11 9 -6
4 20 -5 30 -4 32 6 16 7 -11 12 -29 13 -40 1 -14 9 -22 25 -24 15 -2 21 0 17
7 -4 6 -2 11 5 11 7 0 9 3 6 6 -4 4 -13 1 -22 -6 -9 -7 -18 -10 -22 -6 -3 3
-1 6 6 6 7 0 10 4 7 9 -4 5 0 12 6 14 8 3 5 6 -6 6 -14 1 -17 6 -12 24 3 12 6
25 6 28 0 9 50 -2 50 -11 0 -13 39 -19 47 -8 4 7 12 4 21 -8 13 -17 14 -17 8
-1 -5 15 -2 17 14 12 14 -4 20 -2 20 9 0 8 6 13 13 11 6 -2 28 0 47 4 19 5 27
9 18 10 -12 1 -18 9 -18 24 -1 22 -1 22 -15 -3 -9 -15 -14 -19 -15 -10 0 13
-1 13 -10 0 -8 -13 -10 -13 -10 2 0 9 8 18 18 20 14 3 13 5 -5 10 -15 4 -23 2
-23 -7 0 -8 -9 -11 -25 -7 -14 2 -22 8 -19 13 3 5 11 6 17 3 7 -4 8 -3 4 2
-19 20 -57 6 -57 -21 0 -5 5 -3 10 5 5 8 10 10 10 5 0 -6 -6 -17 -12 -23 -10
-10 -10 -15 2 -22 11 -7 12 -12 3 -21 -12 -12 -15 -5 -26 56 -2 11 -9 19 -15
18 -7 -2 -12 5 -12 14 0 15 -2 14 -16 -3 -8 -10 -13 -13 -9 -6 7 14 -21 17
-30 2 -4 -6 -11 -7 -17 -4 -6 4 5 13 23 22 19 8 28 16 21 19 -6 3 -10 9 -6 14
3 5 -5 9 -16 9 -13 0 -24 -8 -27 -20z m-16 -152 c-3 -8 -6 -5 -6 6 -1 11 2 17
5 13 3 -3 4 -12 1 -19z"/>
<path d="M305 3250 c-3 -5 -1 -10 4 -10 6 0 11 5 11 10 0 6 -2 10 -4 10 -3 0
-8 -4 -11 -10z"/>
<path d="M80 3185 c-8 -10 -9 -15 -1 -15 6 0 11 4 11 10 0 5 7 7 15 4 8 -4 15
-10 15 -16 0 -5 -6 -6 -12 -2 -7 4 -10 3 -5 -1 8 -10 57 -14 57 -4 0 3 -12 12
-27 20 -16 7 -31 15 -34 17 -3 1 -12 -4 -19 -13z"/>
<path d="M7 3113 c7 -2 19 -2 26 0 6 3 1 5 -13 5 -14 0 -19 -2 -13 -5z"/>
<path d="M55 3091 c-3 -5 -1 -12 5 -16 5 -3 10 1 10 9 0 18 -6 21 -15 7z"/>
<path d="M117 3070 c-21 -25 -38 -26 -31 -2 2 9 -1 7 -7 -5 -14 -26 -29 -30
-29 -8 0 31 -26 14 -27 -17 -1 -20 1 -27 5 -17 5 12 13 14 27 8 l20 -8 -20 0
c-15 -1 -17 -3 -6 -10 8 -5 12 -19 9 -35 -3 -14 -1 -23 3 -20 5 3 9 14 9 25 0
11 4 18 9 15 11 -7 2 -48 -12 -57 -5 -4 3 -6 18 -6 19 0 23 2 14 8 -23 15 4 9
31 -6 14 -8 35 -14 47 -15 16 0 21 -4 17 -15 -9 -22 5 -18 27 8 l19 22 6 -23
c5 -18 9 -21 16 -10 8 10 11 11 15 0 4 -10 8 -10 19 -1 8 6 11 15 8 20 -3 5 0
9 5 9 6 0 11 -8 11 -17 0 -13 3 -14 12 -5 7 7 17 12 22 12 6 0 4 -4 -4 -10
-22 -14 -6 -22 21 -11 13 5 18 10 11 10 -8 1 -12 10 -10 24 2 12 9 21 15 20 6
-1 9 6 6 18 -5 16 -8 18 -14 7 -7 -10 -9 -9 -9 5 0 10 -7 25 -15 33 -13 14
-15 12 -16 -13 -1 -27 -1 -27 -8 -4 -6 21 -51 51 -51 33 0 -4 -5 0 -10 8 -6
10 -10 11 -10 3 0 -7 -5 -13 -10 -13 -6 0 -9 6 -8 13 2 8 -11 12 -38 12 -36 0
-40 3 -37 20 3 14 0 12 -12 -7 -8 -16 -21 -28 -28 -27 -9 0 -9 2 1 6 6 2 9 9
6 15 -4 6 0 14 7 19 8 5 9 9 4 9 -6 0 -18 -9 -28 -20z m103 -30 c18 -12 2 -12
-25 0 -13 6 -15 9 -5 9 8 0 22 -4 30 -9z m100 -30 c0 -5 -2 -10 -4 -10 -3 0
-8 5 -11 10 -3 6 -1 10 4 10 6 0 11 -4 11 -10z m-3 -62 c-3 -8 -6 -5 -6 6 -1
11 2 17 5 13 3 -3 4 -12 1 -19z m20 -10 c-3 -8 -6 -5 -6 6 -1 11 2 17 5 13 3
-3 4 -12 1 -19z"/>
<path d="M185 3080 c3 -5 11 -10 16 -10 6 0 7 5 4 10 -3 6 -11 10 -16 10 -6 0
-7 -4 -4 -10z"/>
<path d="M5056 3083 c-3 -4 -6 -28 -6 -54 0 -46 2 -49 73 -113 39 -35 113 -97
162 -136 85 -68 175 -163 175 -185 0 -5 -30 -23 -66 -39 -36 -17 -88 -50 -116
-75 -36 -32 -49 -39 -46 -25 2 12 -5 22 -19 28 -32 15 -58 69 -83 176 -13 52
-31 104 -40 115 -9 11 -21 29 -26 40 -6 14 -10 -12 -12 -84 -2 -94 1 -116 32
-225 48 -168 48 -169 29 -197 -28 -42 -66 -79 -75 -73 -13 8 -38 -15 -32 -30
3 -7 -2 -18 -10 -25 -13 -11 -15 -9 -11 10 4 18 -3 15 -34 -20 -21 -23 -43
-41 -48 -39 -5 2 -31 -18 -57 -44 -35 -36 -54 -48 -77 -48 -19 0 -28 -4 -24
-11 4 -6 14 -8 24 -5 10 4 8 0 -6 -13 -12 -10 -20 -21 -17 -24 3 -3 -3 -3 -15
0 -12 3 -21 1 -21 -6 0 -6 -4 -10 -9 -8 -11 3 -86 -75 -83 -86 1 -5 -2 -6 -8
-2 -8 5 -7 11 1 21 9 11 8 14 -2 14 -8 0 -25 -16 -38 -36 -13 -19 -33 -40 -43
-45 -22 -12 -14 -30 10 -23 14 5 15 4 2 -5 -8 -6 -12 -11 -7 -11 4 0 0 -8 -8
-17 -9 -10 -27 -32 -40 -49 -24 -31 -25 -32 -4 -37 19 -5 20 -7 4 -30 -17 -26
-52 -48 -39 -24 5 9 4 9 -5 1 -7 -6 -13 -18 -15 -25 -1 -8 -7 -24 -14 -36 -19
-35 -15 -46 11 -32 l22 12 -23 -25 c-27 -30 -116 -58 -282 -90 -247 -48 -714
-19 -950 60 -157 52 -262 111 -384 215 -59 52 -96 101 -128 171 -18 38 -24 97
-11 110 4 3 8 14 9 24 13 113 32 153 119 255 114 132 129 192 104 415 -11 106
-22 129 -45 97 -8 -11 -21 -28 -28 -37 -20 -23 -38 -58 -31 -58 4 0 -3 -14
-15 -31 -13 -17 -28 -28 -36 -25 -8 3 -14 0 -14 -6 0 -6 -3 -8 -7 -5 -3 4 -14
0 -24 -9 -11 -10 -19 -12 -24 -5 -11 19 -78 11 -140 -15 -33 -14 -75 -32 -94
-39 -19 -7 -40 -20 -46 -29 -7 -9 -25 -16 -41 -16 -40 0 -64 -16 -37 -24 38
-12 99 -9 131 8 28 14 32 15 32 1 0 -8 -5 -15 -12 -15 -6 0 -9 -3 -6 -6 4 -3
37 15 75 40 76 52 104 58 97 24 -16 -82 -27 -162 -29 -218 -1 -36 -7 -89 -14
-119 -6 -29 -11 -101 -11 -159 l0 -105 -25 23 c-14 13 -37 44 -51 68 -25 42
-25 44 -7 57 10 8 21 15 26 15 4 0 7 8 7 19 0 16 -9 19 -58 23 -72 5 -115 37
-187 137 -28 38 -60 75 -72 82 -26 14 -30 50 -9 68 9 8 13 25 10 50 -4 30 1
45 19 67 24 28 157 230 157 237 0 2 -6 4 -12 4 -7 0 -39 8 -71 18 -66 19 -79
15 -51 -16 18 -20 18 -20 -11 -12 -55 15 -148 7 -229 -20 -43 -15 -84 -27 -90
-27 -6 0 -35 -18 -65 -40 -29 -22 -58 -40 -65 -40 -7 0 -41 -23 -77 -52 -62
-50 -64 -46 -10 16 l26 30 -28 -17 c-15 -10 -27 -14 -26 -10 3 20 -2 24 -16
13 -12 -10 -15 -9 -15 6 0 11 -4 15 -8 9 -10 -14 -85 -14 -94 -1 -5 7 -8 7 -8
-1 0 -7 -11 -13 -25 -13 -14 0 -25 4 -25 10 0 5 -7 6 -17 3 -11 -5 -14 -3 -8
6 6 10 3 11 -15 1 -18 -10 -24 -9 -31 1 -5 8 -9 9 -9 3 0 -6 -7 -11 -15 -11
-8 0 -15 5 -15 10 0 5 -8 3 -17 -4 -12 -10 -15 -10 -9 -1 6 10 0 11 -25 7 -19
-3 -35 -8 -38 -11 -2 -2 -12 3 -22 12 -16 15 -19 14 -35 -5 -15 -16 -21 -18
-38 -8 -29 16 -68 19 -60 4 3 -7 -2 -3 -10 7 -9 11 -16 14 -16 8 0 -10 -5 -10
-21 -1 -16 8 -20 8 -14 -1 6 -9 2 -9 -14 -1 -11 7 -21 8 -21 4 0 -4 -5 -1 -11
7 -8 11 -12 12 -16 3 -3 -9 -11 -9 -29 3 -14 10 -24 12 -24 6 0 -7 -14 -6 -40
3 -23 8 -38 10 -35 5 3 -6 1 -18 -4 -27 -9 -15 -10 -14 -11 10 0 16 -4 26 -9
23 -5 -3 -28 -2 -52 2 -24 5 -56 5 -72 1 -17 -5 -25 -4 -21 3 8 12 -29 6 -38
-7 -4 -5 -8 -1 -8 10 0 17 -2 18 -11 5 -8 -11 -12 -12 -16 -2 -2 6 -10 9 -16
5 -15 -9 -47 -11 -52 -3 -9 15 -73 -3 -83 -23 -10 -21 -11 -20 -11 8 -1 17 -5
26 -9 20 -10 -14 -49 -18 -57 -5 -5 8 -11 8 -20 0 -13 -11 -48 -3 -41 9 6 9
-76 7 -91 -2 -7 -5 -13 -5 -13 0 0 4 -16 8 -35 8 -19 0 -35 -3 -35 -6 0 -3 -7
-6 -15 -6 -8 0 -11 5 -8 10 4 7 -1 7 -13 3 -10 -5 -25 -8 -31 -7 -38 3 -43 5
-43 14 0 5 -7 4 -15 -3 -9 -7 -18 -10 -22 -6 -3 3 -1 6 6 6 7 0 9 5 6 10 -5 8
-11 8 -20 0 -10 -8 -15 -7 -19 7 -2 10 -3 -196 -2 -457 3 -428 11 -589 32
-609 2 -2 14 4 25 15 22 19 22 19 11 -3 -10 -17 -9 -22 5 -27 9 -4 18 -4 21
-1 3 3 -1 5 -9 5 -12 0 -12 2 0 9 10 7 19 4 27 -7 10 -13 15 -14 27 -4 16 14
38 13 49 -3 5 -6 8 -3 8 6 0 9 8 20 18 24 14 5 15 4 4 -6 -15 -16 -16 -29 0
-29 6 0 8 3 5 6 -3 4 0 16 8 26 7 11 11 27 8 36 -4 10 -2 13 5 8 7 -4 12 -3
12 3 0 6 7 7 17 4 11 -4 14 -3 9 6 -5 8 -3 12 5 10 24 -3 40 1 36 9 -8 11 55
13 69 1 9 -8 11 -6 8 8 -4 15 1 18 28 19 18 1 52 3 76 7 35 4 42 2 38 -9 -4
-10 3 -14 22 -15 15 0 21 -3 15 -6 -16 -6 -17 -24 -2 -20 7 1 12 -17 13 -49 1
-41 -2 -50 -13 -46 -10 4 -12 1 -5 -9 4 -8 7 -22 6 -31 -2 -9 5 -29 14 -43 17
-27 11 -50 -7 -25 -9 12 -10 10 -6 -7 4 -16 -1 -24 -15 -29 -11 -3 -23 -2 -27
3 -3 6 -19 13 -36 17 -22 5 -26 4 -15 -4 13 -8 13 -10 -2 -10 -9 0 -18 5 -20
12 -6 18 -58 1 -59 -20 0 -13 -3 -11 -9 6 -11 25 -20 27 -39 9 -11 -10 -12 -9
-6 2 6 11 4 13 -8 8 -9 -3 -19 -2 -23 4 -4 6 -12 5 -22 -3 -10 -8 -13 -8 -9
-1 7 11 -33 20 -92 22 -13 0 -28 6 -34 13 -6 10 -7 9 -4 -4 6 -18 -15 -42 -27
-31 -4 4 -11 1 -16 -7 -8 -12 -10 -12 -10 -1 0 10 -3 11 -13 2 -8 -6 -16 -9
-18 -6 -13 12 -4 -50 18 -124 53 -182 169 -414 290 -584 71 -99 260 -297 362
-379 256 -207 567 -350 893 -412 188 -36 285 -37 2443 -33 2343 4 2166 -1
2424 68 198 52 426 154 584 261 178 119 387 316 506 478 196 264 328 584 376
911 18 124 20 289 4 289 -5 0 -7 -4 -4 -10 11 -18 -17 -11 -31 8 -11 14 -13
15 -14 2 0 -9 6 -22 13 -29 10 -11 9 -13 -6 -8 -13 5 -17 2 -15 -11 2 -9 -2
-16 -8 -15 -7 1 -11 -3 -11 -10 1 -32 -4 -48 -13 -42 -5 3 -10 1 -10 -4 0 -6
-7 -11 -15 -11 -9 0 -18 -7 -21 -15 -4 -8 -10 -12 -15 -9 -5 3 -9 0 -9 -6 0
-6 -4 -9 -9 -5 -5 3 -12 1 -16 -5 -3 -5 -15 -10 -26 -10 -10 0 -19 -4 -19 -9
0 -11 -48 -25 -74 -22 -30 4 -100 67 -90 82 3 5 0 9 -5 9 -7 0 -9 15 -6 36 4
32 3 35 -12 22 -15 -12 -15 -11 -5 9 9 16 9 24 0 29 -7 4 -8 3 -4 -4 4 -7 3
-12 -3 -12 -5 0 -11 -6 -14 -12 -2 -7 -2 -3 -1 9 2 12 0 25 -6 28 -5 3 -10 1
-10 -4 0 -6 -5 -11 -11 -11 -6 0 -8 9 -4 20 4 11 2 20 -4 20 -6 0 -8 6 -5 14
3 7 -1 20 -8 27 -7 8 -14 30 -15 49 -1 24 0 27 4 10 7 -36 20 -46 15 -12 -3
25 0 30 22 34 21 4 26 1 27 -16 0 -21 1 -21 9 -1 7 17 9 14 11 -15 1 -19 2
-42 1 -50 0 -11 3 -10 14 4 8 11 14 15 14 10 0 -5 9 -10 19 -10 11 0 18 3 16
6 -2 4 5 13 16 21 12 8 30 22 41 32 12 9 25 17 30 17 4 0 8 7 8 16 0 10 6 14
14 11 11 -4 13 -1 9 10 -4 11 -2 14 5 9 6 -4 18 4 28 19 9 13 21 22 27 18 6
-3 7 -1 3 5 -4 7 -2 12 4 12 6 0 8 5 5 10 -3 6 -1 10 5 10 6 0 8 5 5 10 -9 14
35 60 58 60 9 0 16 4 15 9 -2 5 2 10 7 11 6 1 17 7 25 14 18 15 52 30 63 27 4
0 7 79 7 178 l-2 178 -56 -4 c-31 -2 -69 -8 -83 -12 -18 -6 -31 -5 -38 2 -8 8
-14 8 -19 2 -4 -6 -25 -11 -47 -12 -89 -4 -125 -8 -125 -13 0 -3 -44 -6 -98
-8 -131 -3 -172 -6 -172 -12 0 -3 -46 -5 -103 -4 -56 0 -112 -3 -125 -8 -15
-5 -21 -4 -17 2 4 6 -2 7 -17 1 -13 -5 -33 -5 -46 0 -15 6 -21 5 -17 -1 8 -13
3 -13 -30 0 -23 9 -26 8 -21 -5 4 -11 2 -14 -7 -8 -16 10 -87 10 -87 0 0 -5
-5 -5 -11 -1 -16 9 -112 10 -127 0 -7 -4 -12 -3 -12 3 0 9 -64 6 -81 -5 -5 -3
-9 -1 -9 5 0 7 -8 7 -23 2 -14 -6 -30 -5 -41 1 -14 8 -17 7 -12 -1 4 -6 2 -11
-3 -11 -6 0 -11 6 -11 13 0 9 -2 9 -8 -1 -5 -7 -16 -10 -26 -6 -11 4 -22 1
-27 -7 -6 -9 -9 -10 -9 -2 0 12 -61 10 -83 -4 -5 -3 -7 -1 -3 5 3 6 1 14 -5
18 -8 4 -9 3 -5 -4 4 -7 2 -12 -4 -12 -6 0 -8 -5 -4 -12 6 -10 4 -10 -8 0 -14
11 -18 11 -25 0 -9 -15 -23 -17 -111 -22 -73 -3 -93 -16 -74 -47 8 -12 9 -18
3 -14 -7 4 -11 -4 -11 -21 0 -27 1 -27 16 -8 8 10 13 15 11 9 -3 -6 10 -11 29
-11 19 -1 34 3 34 7 0 17 41 -16 62 -49 13 -22 26 -31 35 -27 11 4 13 1 9 -11
-4 -12 -2 -15 9 -10 8 3 15 1 15 -4 0 -5 -10 -11 -22 -13 -19 -4 -18 -4 5 -6
16 0 26 -5 23 -10 -3 -4 1 -16 8 -27 11 -14 18 -16 36 -8 21 9 21 11 7 26 -15
14 -14 15 13 14 16 -1 32 -5 37 -9 4 -5 1 -6 -7 -4 -8 2 -12 2 -8 0 4 -2 4
-11 1 -20 -5 -12 -2 -12 15 3 17 14 19 21 9 33 -8 11 -6 11 9 -1 24 -21 38
-23 28 -5 -5 8 -2 8 9 -2 17 -14 20 -10 18 24 -1 17 1 16 11 -5 17 -36 18 -37
33 -17 11 16 13 16 19 2 4 -11 2 -14 -6 -9 -7 5 -8 3 -3 -5 5 -9 13 -8 29 7
29 26 56 35 56 18 0 -8 -6 -17 -12 -19 -10 -4 -10 -6 0 -6 8 -1 16 8 19 19 3
11 13 20 22 21 16 0 43 4 94 14 17 3 27 0 27 -8 0 -8 3 -9 8 -1 20 29 182 6
207 -29 8 -12 15 -17 15 -12 0 15 37 36 37 22 0 -7 3 -29 7 -49 3 -20 2 -39
-3 -43 -5 -3 -7 -14 -4 -26 4 -13 8 -16 13 -9 4 6 7 -3 7 -21 0 -23 -6 -34
-24 -42 -14 -6 -23 -19 -23 -34 0 -12 -4 -23 -10 -23 -5 0 -10 -7 -10 -15 0
-8 -7 -15 -15 -15 -8 0 -14 -5 -13 -12 2 -6 -5 -14 -14 -16 -12 -2 -18 3 -19
15 0 15 -2 14 -9 -4 -5 -13 -14 -23 -19 -23 -7 0 -6 -9 1 -25 6 -14 15 -25 20
-25 5 0 8 -12 6 -27 -2 -20 -11 -29 -38 -38 -19 -7 -33 -15 -32 -19 2 -4 1
-10 -2 -13 -3 -4 -6 -2 -6 3 0 5 -21 10 -46 10 -38 0 -45 -3 -41 -18 3 -10 1
-16 -4 -12 -5 3 -9 12 -9 20 0 8 -4 13 -9 9 -5 -3 -12 3 -14 12 -4 17 -5 17
-6 1 0 -10 -6 -18 -12 -18 -5 0 -7 5 -4 10 9 14 -8 12 -24 -2 -11 -11 -11 -9
-2 10 8 14 8 22 1 22 -5 0 -10 -5 -10 -11 0 -8 -4 -8 -13 0 -10 8 -14 7 -14
-4 0 -8 4 -15 9 -15 4 0 8 -5 8 -10 0 -7 -6 -7 -19 0 -16 8 -23 6 -35 -12 -20
-28 -20 -42 -1 -34 14 5 14 2 0 -24 -20 -39 -19 -43 10 -38 18 4 25 1 25 -10
0 -11 3 -12 15 -2 18 15 31 7 40 -27 3 -15 14 -33 23 -41 11 -9 12 -11 2 -6
-10 5 -8 -1 5 -16 l20 -23 -25 7 c-17 5 -20 4 -12 -2 8 -5 13 -13 12 -18 -1
-4 7 -11 17 -15 12 -5 5 -8 -22 -8 -53 -1 -87 9 -82 23 3 8 -16 11 -66 9 -49
-2 -76 2 -87 11 -8 8 -29 17 -47 21 -25 5 -37 2 -54 -14 -22 -20 -22 -21 -3
-43 l19 -23 -24 20 c-30 26 -58 77 -37 69 10 -4 14 0 12 13 -2 10 -11 18 -21
18 -11 0 -29 10 -41 21 -11 12 -52 37 -90 55 -75 36 -84 44 -83 74 1 16 2 17
6 3 5 -21 90 -71 108 -64 7 2 16 -2 19 -9 3 -9 12 -12 22 -8 11 4 15 2 11 -4
-4 -5 6 -15 21 -22 27 -11 27 -11 -5 18 -17 16 -29 32 -26 34 3 3 -2 15 -10
27 -14 20 -15 20 -22 3 -5 -10 -7 -21 -7 -25 1 -5 -2 -8 -8 -8 -5 0 -10 9 -10
20 0 11 -4 20 -10 20 -5 0 -10 15 -10 33 0 24 -3 28 -10 17 -6 -9 -13 -11 -17
-5 -10 13 -66 17 -58 5 4 -6 1 -10 -4 -10 -6 0 -11 7 -11 15 0 7 -6 18 -13 22
-8 4 -26 26 -41 48 -24 35 -26 37 -20 13 8 -36 -1 -35 -34 3 -46 54 -56 84
-12 37 11 -12 23 -18 27 -14 9 8 -45 56 -64 56 -18 0 -103 84 -103 101 1 8 16
-3 34 -23 35 -40 60 -50 49 -20 -3 9 -25 42 -47 72 -23 30 -47 67 -55 83 -8
15 -18 27 -23 27 -4 0 -8 6 -8 13 0 8 -8 22 -19 31 -17 15 -23 36 -37 131 -13
84 -53 144 -96 145 -9 0 -24 10 -32 22 -9 12 -16 19 -16 14 0 -5 -9 3 -21 18
-11 14 -26 26 -34 26 -7 0 -19 7 -26 17 -8 9 -43 29 -78 45 -60 27 -65 28 -83
12 -16 -16 -42 -32 -75 -50 -7 -3 -29 2 -50 13 -32 15 -39 24 -45 60 -15 93
-65 155 -141 178 -25 7 -48 11 -51 8z m597 -365 c-2 -5 -16 -8 -31 -8 -20 0
-23 -3 -14 -12 6 -6 29 -11 51 -10 22 1 43 -3 46 -8 3 -6 -1 -7 -9 -4 -9 3
-29 1 -45 -4 -25 -9 -34 -7 -55 9 -13 10 -31 19 -40 19 -30 0 -16 17 15 18 17
0 32 2 34 4 7 7 53 3 48 -4z m-3688 -66 c-3 -3 -11 0 -18 7 -9 10 -8 11 6 5
10 -3 15 -9 12 -12z m4247 -79 c-10 -4 -10 -8 0 -21 12 -15 11 -16 -4 -3 -19
14 -15 32 5 30 8 0 8 -2 -1 -6z m-4569 -54 c-27 -45 -46 -60 -63 -49 -13 8
-12 10 2 10 20 0 50 39 41 53 -3 6 -1 7 5 3 6 -3 13 -2 17 4 16 26 14 6 -2
-21z m-88 -48 c3 -5 2 -12 -3 -15 -5 -3 -9 1 -9 9 0 17 3 19 12 6z m165 1 c0
-12 -32 -29 -70 -37 l-35 -7 25 20 c22 17 44 26 73 31 4 0 7 -2 7 -7z m-122
-42 c12 -1 10 -5 -8 -15 -14 -8 -38 -14 -55 -13 -23 0 -25 2 -7 5 12 2 27 14
34 26 7 14 13 17 16 9 2 -6 11 -12 20 -12z m-869 -6 c-7 -9 -5 -15 9 -23 11
-6 22 -8 24 -5 3 3 8 -2 12 -11 3 -9 2 -14 -3 -11 -5 3 -11 -3 -14 -15 -4 -15
-2 -17 6 -10 9 7 12 -1 12 -32 0 -23 -4 -45 -10 -49 -7 -5 -7 -8 0 -8 6 0 10
-16 11 -35 0 -19 -3 -32 -8 -29 -4 3 -8 1 -8 -3 0 -5 -7 -18 -15 -29 -13 -18
-14 -18 -9 6 5 25 5 25 -11 -3 -9 -15 -13 -33 -9 -39 4 -7 3 -8 -4 -4 -7 4
-12 2 -12 -3 0 -6 5 -11 10 -11 6 0 10 -7 10 -16 0 -9 5 -12 13 -8 8 5 8 2 -2
-9 -15 -19 -26 -23 -15 -6 4 7 0 9 -12 5 -17 -5 -19 0 -19 47 0 28 -4 55 -9
58 -5 4 -4 19 2 36 6 20 6 35 0 48 -8 13 -8 16 2 10 10 -6 10 -3 2 11 -6 11
-7 27 -1 41 5 13 5 23 0 23 -5 0 -11 9 -14 20 -4 14 0 20 11 21 11 0 12 2 5 6
-7 2 -13 12 -13 21 0 13 9 17 35 18 26 0 32 -2 24 -12z m637 -1 c-1 -14 7 -18
37 -18 20 -1 37 3 37 7 0 4 5 8 11 8 5 0 8 -4 4 -9 -3 -5 -1 -12 4 -16 6 -3 8
6 5 21 -4 23 -3 25 10 15 8 -7 25 -10 38 -6 19 5 20 4 6 -5 -9 -6 -15 -17 -12
-24 8 -20 -16 -62 -26 -47 -5 9 -21 6 -61 -13 -30 -13 -62 -27 -71 -30 -13 -4
-18 -16 -18 -43 -1 -21 -7 -67 -15 -103 -8 -36 -14 -104 -15 -152 l0 -86 45
-55 c48 -60 52 -67 33 -67 -7 0 -25 -7 -40 -14 -25 -13 -99 -38 -198 -67 -19
-6 -54 -19 -77 -30 -24 -10 -48 -19 -53 -19 -6 0 -30 -9 -53 -19 -23 -11 -77
-35 -120 -55 -47 -21 -76 -40 -72 -46 5 -8 11 -8 19 0 7 5 37 18 67 29 30 10
76 26 102 35 27 10 51 15 55 12 3 -3 1 -6 -5 -6 -6 0 -36 -11 -67 -25 -31 -14
-58 -24 -60 -22 -1 1 -10 -4 -18 -11 -8 -6 -40 -20 -71 -30 -49 -17 -55 -17
-50 -3 2 9 -3 3 -13 -14 -16 -27 -18 -28 -24 -10 -7 18 -8 19 -15 3 -4 -10
-18 -18 -32 -18 -14 0 -22 -4 -18 -11 4 -6 1 -9 -6 -8 -22 4 -126 -42 -174
-76 -39 -29 -55 -37 -55 -31 0 16 118 102 163 119 9 3 17 14 17 22 0 9 4 14 8
11 10 -6 160 48 176 64 6 6 11 23 12 38 2 38 7 56 19 64 6 5 5 8 -3 8 -9 0
-10 5 -2 19 13 25 13 34 0 26 -5 -3 -7 0 -4 9 9 24 -16 89 -29 77 -8 -6 -19
-5 -31 5 -10 7 -23 11 -29 7 -6 -3 -7 -1 -4 4 4 6 -6 16 -24 22 -17 6 -28 15
-25 20 4 5 2 12 -3 16 -6 3 -8 12 -4 20 3 9 -1 23 -8 32 -8 9 -9 14 -3 10 7
-4 15 0 18 9 4 10 2 13 -7 9 -6 -4 -1 3 13 15 14 12 18 18 10 14 -11 -5 -10
-2 3 13 9 11 17 25 17 31 0 14 50 5 71 -14 8 -8 21 -14 27 -14 7 0 12 -10 13
-22 0 -22 1 -22 9 -3 7 17 9 17 9 3 1 -22 10 -22 35 -3 10 8 23 12 28 9 5 -3
8 -2 7 3 -4 20 2 27 12 13 8 -12 10 -9 6 12 -3 19 0 25 10 21 7 -3 13 -11 13
-19 0 -8 5 -14 11 -14 5 0 7 5 3 11 -3 6 0 15 7 20 10 6 8 9 -8 9 -13 0 -23 4
-23 10 0 5 7 6 17 3 12 -5 14 -3 8 7 -6 9 -4 11 4 6 7 -5 16 -18 21 -30 7 -17
9 -17 9 -3 1 9 -9 27 -21 39 -19 19 -19 21 -2 14 34 -14 61 -19 46 -8 -17 11
-15 20 9 51 10 13 16 28 12 34 -3 6 -1 7 5 3 6 -4 8 -14 5 -23 -6 -15 -5 -16
9 -3 18 16 19 31 3 42 -6 4 -1 8 10 9 17 0 18 1 3 7 -13 5 -15 11 -8 22 7 10
10 11 10 3 0 -25 21 -12 36 22 8 19 19 35 24 35 6 0 10 7 10 16 0 8 5 12 10 9
6 -3 10 -1 10 4 0 6 9 20 19 30 14 14 22 16 30 8 7 -7 9 -5 7 9 -3 14 2 20 17
21 11 1 24 8 28 15 7 10 9 10 9 -2 0 -12 2 -12 9 -2 6 11 10 10 15 -4 6 -15 8
-15 24 -2 9 9 22 14 28 11 6 -2 17 3 24 12 16 19 18 19 16 -2z m38 -4 c-30
-12 -37 -10 -24 5 6 8 19 12 27 9 14 -6 14 -8 -3 -14z m4486 -205 c0 -9 -46
20 -71 45 -25 26 -49 63 -49 77 0 4 27 -21 60 -55 33 -35 60 -65 60 -67z
m-5605 94 c3 -2 -3 -12 -12 -21 -16 -14 -20 -14 -38 0 -20 15 -20 15 3 10 18
-4 21 -3 13 7 -8 9 -6 12 9 11 11 -1 22 -4 25 -7z m5606 -9 l24 -20 -30 17
c-39 24 -40 24 -28 24 6 0 21 -9 34 -21z m-5554 -12 c7 0 12 -3 11 -6 -2 -21
4 -31 18 -31 9 0 14 -5 12 -12 -6 -17 -29 -23 -26 -6 2 7 -4 13 -12 13 -8 0
-21 4 -29 9 -10 7 -12 6 -6 -4 6 -10 4 -12 -8 -7 -10 4 -18 0 -21 -11 -2 -9
-3 -3 -1 15 4 42 14 56 34 47 9 -3 21 -7 28 -7z m-20 -61 c-3 -8 1 -20 9 -27
13 -11 14 -9 9 14 -5 17 -3 27 4 27 6 0 10 -6 9 -12 -2 -9 9 -12 37 -11 28 1
35 -1 25 -8 -13 -8 -11 -12 10 -29 15 -12 18 -18 8 -14 -10 3 -18 1 -18 -5 0
-6 -9 -2 -21 10 -12 12 -27 18 -38 14 -10 -3 -28 3 -41 15 -20 18 -22 23 -10
30 20 13 23 12 17 -4z m6963 -21 c0 -8 -7 -15 -15 -15 -8 0 -15 -8 -16 -17 0
-12 -2 -13 -6 -5 -3 7 3 22 13 32 23 23 24 23 24 5z m46 -34 c3 -23 19 -41 35
-41 13 0 22 -12 30 -39 8 -26 19 -41 33 -45 18 -5 19 -8 6 -16 -13 -8 -13 -10
2 -10 9 0 20 -5 24 -12 4 -7 3 -8 -4 -4 -7 4 -12 1 -12 -8 0 -9 3 -16 8 -16 4
0 8 -20 9 -44 3 -50 -6 -58 -72 -61 -53 -3 -75 17 -75 67 0 26 7 45 22 60 17
17 18 20 4 15 -14 -6 -17 -3 -12 10 4 9 1 20 -6 25 -10 6 -10 10 2 18 11 7 5
9 -20 5 -19 -3 -30 -3 -24 0 11 6 7 55 -5 55 -4 0 -8 12 -9 26 -1 19 2 25 13
20 8 -3 14 -2 14 2 -4 27 2 32 19 16 9 -10 17 -20 18 -23z m-6948 -3 c7 -7 12
-16 12 -21 0 -5 -7 -1 -16 7 -8 9 -20 13 -26 10 -7 -4 -8 -2 -4 4 9 15 19 15
34 0z m5872 -198 c8 -5 11 -10 5 -10 -5 0 -17 5 -25 10 -8 5 -10 10 -5 10 6 0
17 -5 25 -10z m84 -61 c-3 -5 -10 -7 -15 -3 -5 3 -7 10 -3 15 3 5 10 7 15 3 5
-3 7 -10 3 -15z m526 5 c0 -8 -4 -12 -10 -9 -5 3 -10 10 -10 16 0 5 5 9 10 9
6 0 10 -7 10 -16z m-57 -94 c-3 -12 -8 -19 -11 -16 -5 6 5 36 12 36 2 0 2 -9
-1 -20z m-6356 -6 c-3 -3 -12 -4 -19 -1 -8 3 -5 6 6 6 11 1 17 -2 13 -5z
m-300 -119 c-15 -16 -28 -10 -21 10 3 7 12 11 19 8 11 -4 12 -8 2 -18z m6733
-21 c0 -2 -9 0 -20 6 -11 6 -20 13 -20 16 0 2 9 0 20 -6 11 -6 20 -13 20 -16z
m-13 -20 c44 -8 103 -31 103 -40 0 -9 -78 5 -140 25 -33 11 -49 20 -40 24 8 3
20 4 27 2 6 -2 29 -7 50 -11z m-2419 -51 c-2 -9 -10 -19 -18 -21 -12 -4 -13
-3 -3 10 7 8 10 18 6 21 -3 4 -1 7 6 7 7 0 11 -8 9 -17z m2810 -118 c2 -2 0
-5 -5 -8 -4 -3 -21 1 -38 8 l-30 14 35 -6 c19 -3 36 -7 38 -8z m232 -141 c0
-2 -9 0 -20 6 -11 6 -20 13 -20 16 0 2 9 0 20 -6 11 -6 20 -13 20 -16z"/>
<path d="M1130 2000 c-9 -6 -10 -10 -3 -10 6 0 15 5 18 10 8 12 4 12 -15 0z"/>
<path d="M1070 1950 c0 -5 5 -10 11 -10 5 0 7 5 4 10 -3 6 -8 10 -11 10 -2 0
-4 -4 -4 -10z"/>
<path d="M1113 1924 c0 -7 6 -10 14 -7 7 3 13 8 13 12 0 4 -6 8 -13 8 -8 0
-14 -6 -14 -13z"/>
<path d="M1029 1903 c-12 -15 -12 -16 3 -10 9 3 19 1 22 -6 2 -7 5 -5 5 5 1
25 -15 30 -30 11z"/>
<path d="M1070 1896 c0 -9 5 -16 10 -16 6 0 10 4 10 9 0 6 -4 13 -10 16 -5 3
-10 -1 -10 -9z"/>
<path d="M998 1873 c7 -3 16 -2 19 1 4 3 -2 6 -13 5 -11 0 -14 -3 -6 -6z"/>
<path d="M4700 3010 c-13 -9 -13 -11 0 -20 8 -5 22 -10 30 -10 10 0 11 3 4 8
-6 4 -13 12 -15 19 -3 9 -9 9 -19 3z"/>
<path d="M28 2993 c7 -3 16 -2 19 1 4 3 -2 6 -13 5 -11 0 -14 -3 -6 -6z"/>
<path d="M0 2948 c0 -6 3 -8 7 -5 3 4 12 2 20 -4 8 -7 13 -8 13 -1 0 5 -7 13
-16 16 -22 8 -24 8 -24 -6z"/>
<path d="M134 2916 c11 -9 24 -16 30 -16 12 0 7 5 -24 19 -24 11 -24 11 -6 -3z"/>
<path d="M231 2904 c0 -11 3 -14 6 -6 3 7 2 16 -1 19 -3 4 -6 -2 -5 -13z"/>
<path d="M310 2885 c7 -9 15 -13 17 -11 7 7 -7 26 -19 26 -6 0 -6 -6 2 -15z"/>
<path d="M3190 2856 c0 -2 7 -7 16 -10 8 -3 12 -2 9 4 -6 10 -25 14 -25 6z"/>
<path d="M3222 2824 c-11 -12 -8 -14 19 -14 18 0 30 1 28 3 -2 1 -11 8 -19 14
-11 8 -18 8 -28 -3z"/>
<path d="M3255 2780 c3 -5 11 -10 16 -10 6 0 7 5 4 10 -3 6 -11 10 -16 10 -6
0 -7 -4 -4 -10z"/>
<path d="M4532 2746 c-23 -12 -48 -28 -55 -35 -20 -21 66 18 88 39 24 25 21
24 -33 -4z"/>
<path d="M3420 2751 c0 -10 19 -25 25 -20 1 2 -3 10 -11 17 -8 7 -14 8 -14 3z"/>
<path d="M375 2730 c-3 -5 -1 -10 4 -10 6 0 11 5 11 10 0 6 -2 10 -4 10 -3 0
-8 -4 -11 -10z"/>
<path d="M4556 2715 c-11 -8 -15 -15 -10 -15 6 0 19 7 30 15 10 8 15 14 9 14
-5 0 -19 -6 -29 -14z"/>
<path d="M4445 2690 c-3 -5 -1 -10 4 -10 6 0 11 5 11 10 0 6 -2 10 -4 10 -3 0
-8 -4 -11 -10z"/>
<path d="M4454 2664 c-18 -14 -18 -15 4 -4 12 6 22 13 22 15 0 8 -5 6 -26 -11z"/>
<path d="M4495 2660 c-3 -5 -2 -10 4 -10 5 0 13 5 16 10 3 6 2 10 -4 10 -5 0
-13 -4 -16 -10z"/>
<path d="M3517 2639 c13 -12 46 -15 50 -3 2 6 -9 11 -27 11 -17 0 -27 -4 -23
-8z"/>
<path d="M5903 2643 c4 -6 -8 -11 -26 -12 -18 -2 -39 -3 -47 -4 -9 -1 -17 -12
-18 -25 -2 -24 -2 -24 26 -7 27 18 27 18 10 -2 -23 -26 -23 -33 2 -28 12 2 18
0 15 -6 -4 -5 -10 -7 -15 -4 -4 2 -7 -8 -7 -23 1 -24 5 -28 24 -24 13 2 23 11
23 18 0 8 5 14 11 14 5 0 8 -4 4 -9 -3 -5 -1 -12 5 -16 6 -4 7 -12 4 -18 -4
-7 -4 -9 1 -5 9 8 35 -15 35 -32 0 -6 -5 -8 -12 -4 -6 4 -8 3 -4 -4 3 -6 1
-12 -6 -15 -7 -2 0 -2 16 1 21 3 26 1 21 -8 -5 -9 -4 -11 3 -6 7 4 12 1 12 -6
0 -10 2 -10 9 1 10 15 31 7 31 -12 0 -8 -3 -8 -9 1 -7 11 -9 11 -14 -2 -4 -9
-1 -15 6 -13 7 1 11 -7 9 -21 -2 -22 -1 -22 15 -7 14 14 14 18 2 26 -11 7 -10
9 6 9 15 0 17 3 7 9 -17 10 -16 17 0 35 11 12 14 12 21 0 5 -8 13 -12 18 -9 5
4 6 12 2 18 -12 19 -12 37 -1 37 6 0 8 -7 4 -15 -3 -8 -1 -15 3 -15 9 0 22 23
27 48 1 8 11 23 21 35 10 11 13 17 7 14 -8 -5 -11 2 -10 18 0 14 5 25 10 25 5
0 -1 8 -12 19 -14 12 -31 16 -48 13 -21 -4 -25 -2 -19 9 7 12 6 12 -7 1 -10
-8 -18 -9 -22 -3 -7 10 -82 8 -93 -2 -3 -4 -15 -2 -26 4 -10 6 -17 7 -14 2z
m67 -12 c0 -5 -7 -12 -16 -15 -14 -5 -15 -4 -4 9 14 17 20 19 20 6z m-26 -46
c-4 -8 -11 -12 -16 -9 -6 4 -5 10 3 15 19 12 19 11 13 -6z m-39 -19 c7 3 15 2
18 -3 3 -4 -6 -9 -19 -9 -16 -1 -24 3 -23 15 0 9 3 11 5 4 3 -7 11 -10 19 -7z
m83 -26 c-7 -11 -14 -17 -17 -15 -2 3 1 11 7 18 7 8 8 18 4 22 -4 5 -1 5 5 1
10 -5 10 -11 1 -26z m-15 -31 c7 0 3 -4 -8 -8 -22 -9 -35 -5 -35 10 0 6 5 7
10 4 6 -3 11 2 11 12 1 17 2 17 6 1 2 -10 10 -18 16 -19z m121 3 c2 -4 -4 -8
-14 -8 -10 0 -16 4 -14 8 3 4 9 8 14 8 5 0 11 -4 14 -8z m-92 -56 c10 3 18 1
18 -4 0 -8 -19 -9 -52 -3 -5 0 -8 11 -7 24 l0 22 11 -23 c8 -15 17 -21 30 -16z"/>
<path d="M4509 2623 c-13 -16 -12 -17 4 -4 9 7 17 15 17 17 0 8 -8 3 -21 -13z"/>
<path d="M4380 2619 c0 -5 5 -7 10 -4 6 3 10 8 10 11 0 2 -4 4 -10 4 -5 0 -10
-5 -10 -11z"/>
<path d="M5856 2484 c-8 -20 -1 -31 27 -45 12 -7 19 -8 14 -4 -4 5 1 18 10 29
18 21 18 21 -4 3 -12 -11 -26 -16 -32 -13 -15 9 -1 38 15 32 8 -3 14 -1 14 4
0 16 -37 11 -44 -6z"/>
<path d="M4208 2463 c-35 -5 -46 -31 -12 -29 13 0 24 4 24 9 0 4 3 6 8 6 18
-3 32 2 32 11 0 10 -4 10 -52 3z"/>
<path d="M3653 2330 c2 -30 21 -41 30 -17 4 9 6 9 6 0 1 -6 -4 -15 -9 -18 -13
-8 13 -35 35 -35 15 0 15 1 -1 17 -15 16 -15 17 2 23 17 6 17 7 -1 14 -16 6
-17 9 -5 16 8 5 11 12 7 17 -5 4 -12 1 -17 -6 -7 -12 -11 -11 -25 2 -22 23
-25 22 -22 -13z"/>
<path d="M4030 2350 c-12 -7 -10 -9 8 -7 12 0 22 5 22 9 0 11 -12 10 -30 -2z"/>
<path d="M3735 2291 c-3 -6 3 -9 14 -8 11 0 17 5 15 9 -7 11 -22 10 -29 -1z"/>
<path d="M3646 2275 c4 -8 1 -15 -7 -15 -7 0 -10 -2 -7 -5 3 -3 12 -3 21 1 16
6 13 34 -4 34 -4 0 -6 -7 -3 -15z"/>
<path d="M7104 2269 c-4 -7 -3 -9 4 -5 5 3 13 0 15 -6 4 -9 6 -10 6 -1 1 17
-16 25 -25 12z"/>
<path d="M3771 2244 c6 -8 18 -14 26 -14 20 0 8 16 -17 23 -17 4 -19 3 -9 -9z"/>
<path d="M3821 2224 c0 -11 3 -14 6 -6 3 7 2 16 -1 19 -3 4 -6 -2 -5 -13z"/>
<path d="M3750 2220 c0 -5 9 -14 20 -20 19 -10 20 -10 8 9 -13 22 -28 28 -28
11z"/>
<path d="M3910 2221 c0 -6 4 -13 10 -16 6 -3 7 1 4 9 -7 18 -14 21 -14 7z"/>
<path d="M3855 2210 c3 -5 8 -10 11 -10 2 0 4 5 4 10 0 6 -5 10 -11 10 -5 0
-7 -4 -4 -10z"/>
<path d="M4110 2196 c0 -10 28 -13 41 -5 10 6 7 9 -13 9 -16 0 -28 -2 -28 -4z"/>
<path d="M4078 2183 c7 -3 16 -2 19 1 4 3 -2 6 -13 5 -11 0 -14 -3 -6 -6z"/>
<path d="M6555 2081 c-3 -5 0 -13 6 -17 7 -4 9 -3 5 4 -3 5 0 13 6 15 9 4 10
6 1 6 -6 1 -14 -3 -18 -8z"/>
<path d="M6543 2005 c-24 -26 -30 -55 -12 -55 7 0 9 -10 6 -25 -3 -17 0 -24 7
-22 6 2 22 0 35 -5 34 -12 56 -2 56 26 0 18 -5 23 -22 21 -13 -1 -20 2 -16 10
2 7 -1 16 -6 20 -6 3 -8 12 -4 18 3 7 -3 4 -15 -7 -11 -10 -27 -16 -34 -13 -8
3 -6 6 5 6 11 1 15 6 11 13 -4 7 -3 8 4 4 8 -5 12 0 12 13 0 25 0 25 -27 -4z
m35 -49 c-7 -8 -15 -12 -17 -11 -5 6 10 25 20 25 5 0 4 -6 -3 -14z m2 -36 c0
-5 -4 -10 -10 -10 -5 0 -10 5 -10 10 0 6 5 10 10 10 6 0 10 -4 10 -10z m38 -2
c-6 -18 -25 -21 -25 -3 0 8 7 15 15 15 7 0 12 -5 10 -12z"/>
<path d="M6580 2019 c0 -5 5 -7 10 -4 6 3 10 8 10 11 0 2 -4 4 -10 4 -5 0 -10
-5 -10 -11z"/>
<path d="M7905 2020 c3 -5 8 -10 11 -10 2 0 4 5 4 10 0 6 -5 10 -11 10 -5 0
-7 -4 -4 -10z"/>
<path d="M6200 2011 c0 -5 9 -7 20 -4 11 3 20 7 20 9 0 2 -9 4 -20 4 -11 0
-20 -4 -20 -9z"/>
<path d="M7560 2011 c0 -6 4 -13 10 -16 6 -3 7 1 4 9 -7 18 -14 21 -14 7z"/>
<path d="M6280 1960 c0 -6 7 -10 15 -10 8 0 15 2 15 4 0 2 -7 6 -15 10 -8 3
-15 1 -15 -4z"/>
<path d="M6645 1940 c-5 -17 9 -60 20 -60 3 0 4 18 2 40 -2 43 -12 52 -22 20z"/>
<path d="M4555 1941 c-7 -12 12 -24 25 -16 11 7 4 25 -10 25 -5 0 -11 -4 -15
-9z"/>
<path d="M4627 1943 c-10 -9 -9 -23 2 -23 5 0 11 7 15 15 5 15 -5 20 -17 8z"/>
<path d="M3090 1895 c0 -21 32 -75 44 -75 20 0 20 13 1 50 -13 25 -45 42 -45
25z"/>
<path d="M6541 1874 c0 -11 3 -14 6 -6 3 7 2 16 -1 19 -3 4 -6 -2 -5 -13z"/>
<path d="M6580 1870 c0 -4 9 -10 20 -13 11 -3 20 -1 20 5 0 6 7 7 16 4 8 -3
12 -2 9 3 -6 11 -65 11 -65 1z"/>
<path d="M6745 1840 c3 -5 8 -10 11 -10 2 0 4 5 4 10 0 6 -5 10 -11 10 -5 0
-7 -4 -4 -10z"/>
<path d="M6750 1800 c0 -11 2 -20 4 -20 2 0 6 9 9 20 3 11 1 20 -4 20 -5 0 -9
-9 -9 -20z"/>
<path d="M3865 1760 c-3 -5 -1 -10 4 -10 6 0 11 5 11 10 0 6 -2 10 -4 10 -3 0
-8 -4 -11 -10z"/>
<path d="M4048 1723 c6 -2 18 -2 25 0 6 3 1 5 -13 5 -14 0 -19 -2 -12 -5z"/>
<path d="M4457 1675 c-4 -8 -3 -16 1 -19 4 -3 9 4 9 15 2 23 -3 25 -10 4z"/>
</g>
</svg>
